<?xml version="1.0" standalone="no"?>
<!DOCTYPE svg PUBLIC "-//W3C//DTD SVG 1.1//EN" "http://www.w3.org/Graphics/SVG/1.1/DTD/svg11.dtd" >
<svg xmlns="http://www.w3.org/2000/svg">
<metadata>Generated by IcoMoon</metadata>
<defs>
<font id="nes-icon" horiz-adv-x="1024">
<font-face units-per-em="1024" ascent="960" descent="-64" />
<missing-glyph horiz-adv-x="1024" />
<glyph unicode="&#x20;" horiz-adv-x="512" d="" />
<glyph unicode="&#xe900;" glyph-name="search-minus" d="M192 960h64v-64h-64v64zM256 960h64v-64h-64v64zM320 960h64v-64h-64v64zM384 960h64v-64h-64v64zM448 960h64v-64h-64v64zM512 960h64v-64h-64v64zM576 960h64v-64h-64v64zM128 896h64v-64h-64v64zM192 896h64v-64h-64v64zM256 896h64v-64h-64v64zM320 896h64v-64h-64v64zM384 896h64v-64h-64v64zM448 896h64v-64h-64v64zM512 896h64v-64h-64v64zM576 896h64v-64h-64v64zM640 896h64v-64h-64v64zM64 832h64v-64h-64v64zM128 832h64v-64h-64v64zM192 832h64v-64h-64v64zM576 832h64v-64h-64v64zM640 832h64v-64h-64v64zM704 832h64v-64h-64v64zM0 768h64v-64h-64v64zM64 768h64v-64h-64v64zM128 768h64v-64h-64v64zM640 768h64v-64h-64v64zM704 768h64v-64h-64v64zM768 768h64v-64h-64v64zM0 704h64v-64h-64v64zM64 704h64v-64h-64v64zM704 704h64v-64h-64v64zM768 704h64v-64h-64v64zM0 640h64v-64h-64v64zM64 640h64v-64h-64v64zM704 640h64v-64h-64v64zM768 640h64v-64h-64v64zM0 576h64v-64h-64v64zM64 576h64v-64h-64v64zM256 576h64v-64h-64v64zM320 576h64v-64h-64v64zM384 576h64v-64h-64v64zM448 576h64v-64h-64v64zM512 576h64v-64h-64v64zM704 576h64v-64h-64v64zM768 576h64v-64h-64v64zM0 512h64v-64h-64v64zM64 512h64v-64h-64v64zM704 512h64v-64h-64v64zM768 512h64v-64h-64v64zM0 448h64v-64h-64v64zM64 448h64v-64h-64v64zM704 448h64v-64h-64v64zM768 448h64v-64h-64v64zM0 384h64v-64h-64v64zM64 384h64v-64h-64v64zM128 384h64v-64h-64v64zM640 384h64v-64h-64v64zM704 384h64v-64h-64v64zM768 384h64v-64h-64v64zM64 320h64v-64h-64v64zM128 320h64v-64h-64v64zM192 320h64v-64h-64v64zM576 320h64v-64h-64v64zM640 320h64v-64h-64v64zM704 320h64v-64h-64v64zM128 256h64v-64h-64v64zM192 256h64v-64h-64v64zM256 256h64v-64h-64v64zM320 256h64v-64h-64v64zM384 256h64v-64h-64v64zM448 256h64v-64h-64v64zM512 256h64v-64h-64v64zM576 256h64v-64h-64v64zM640 256h64v-64h-64v64zM704 256h64v-64h-64v64zM768 256h64v-64h-64v64zM192 192h64v-64h-64v64zM256 192h64v-64h-64v64zM320 192h64v-64h-64v64zM384 192h64v-64h-64v64zM448 192h64v-64h-64v64zM512 192h64v-64h-64v64zM576 192h64v-64h-64v64zM704 192h64v-64h-64v64zM768 192h64v-64h-64v64zM832 192h64v-64h-64v64zM768 128h64v-64h-64v64zM832 128h64v-64h-64v64zM896 128h64v-64h-64v64zM832 64h64v-64h-64v64zM896 64h64v-64h-64v64zM960 64h64v-64h-64v64zM896 0h64v-64h-64v64zM960 0h64v-64h-64v64z" />
<glyph unicode="&#xe901;" glyph-name="search-plus" d="M192 960h64v-64h-64v64zM256 960h64v-64h-64v64zM320 960h64v-64h-64v64zM384 960h64v-64h-64v64zM448 960h64v-64h-64v64zM512 960h64v-64h-64v64zM576 960h64v-64h-64v64zM128 896h64v-64h-64v64zM192 896h64v-64h-64v64zM256 896h64v-64h-64v64zM320 896h64v-64h-64v64zM384 896h64v-64h-64v64zM448 896h64v-64h-64v64zM512 896h64v-64h-64v64zM576 896h64v-64h-64v64zM640 896h64v-64h-64v64zM64 832h64v-64h-64v64zM128 832h64v-64h-64v64zM192 832h64v-64h-64v64zM576 832h64v-64h-64v64zM640 832h64v-64h-64v64zM704 832h64v-64h-64v64zM0 768h64v-64h-64v64zM64 768h64v-64h-64v64zM128 768h64v-64h-64v64zM640 768h64v-64h-64v64zM704 768h64v-64h-64v64zM768 768h64v-64h-64v64zM0 704h64v-64h-64v64zM64 704h64v-64h-64v64zM384 704h64v-64h-64v64zM704 704h64v-64h-64v64zM768 704h64v-64h-64v64zM0 640h64v-64h-64v64zM64 640h64v-64h-64v64zM384 640h64v-64h-64v64zM704 640h64v-64h-64v64zM768 640h64v-64h-64v64zM0 576h64v-64h-64v64zM64 576h64v-64h-64v64zM256 576h64v-64h-64v64zM320 576h64v-64h-64v64zM384 576h64v-64h-64v64zM448 576h64v-64h-64v64zM512 576h64v-64h-64v64zM704 576h64v-64h-64v64zM768 576h64v-64h-64v64zM0 512h64v-64h-64v64zM64 512h64v-64h-64v64zM384 512h64v-64h-64v64zM704 512h64v-64h-64v64zM768 512h64v-64h-64v64zM0 448h64v-64h-64v64zM64 448h64v-64h-64v64zM384 448h64v-64h-64v64zM704 448h64v-64h-64v64zM768 448h64v-64h-64v64zM0 384h64v-64h-64v64zM64 384h64v-64h-64v64zM128 384h64v-64h-64v64zM640 384h64v-64h-64v64zM704 384h64v-64h-64v64zM768 384h64v-64h-64v64zM64 320h64v-64h-64v64zM128 320h64v-64h-64v64zM192 320h64v-64h-64v64zM576 320h64v-64h-64v64zM640 320h64v-64h-64v64zM704 320h64v-64h-64v64zM128 256h64v-64h-64v64zM192 256h64v-64h-64v64zM256 256h64v-64h-64v64zM320 256h64v-64h-64v64zM384 256h64v-64h-64v64zM448 256h64v-64h-64v64zM512 256h64v-64h-64v64zM576 256h64v-64h-64v64zM640 256h64v-64h-64v64zM704 256h64v-64h-64v64zM768 256h64v-64h-64v64zM192 192h64v-64h-64v64zM256 192h64v-64h-64v64zM320 192h64v-64h-64v64zM384 192h64v-64h-64v64zM448 192h64v-64h-64v64zM512 192h64v-64h-64v64zM576 192h64v-64h-64v64zM704 192h64v-64h-64v64zM768 192h64v-64h-64v64zM832 192h64v-64h-64v64zM768 128h64v-64h-64v64zM832 128h64v-64h-64v64zM896 128h64v-64h-64v64zM832 64h64v-64h-64v64zM896 64h64v-64h-64v64zM960 64h64v-64h-64v64zM896 0h64v-64h-64v64zM960 0h64v-64h-64v64z" />
<glyph unicode="&#xe902;" glyph-name="snes" d="M384 768h64v-64h-64v64zM384 704h64v-64h-64v64zM448 640h64v-64h-64v64zM128 576h64v-64h-64v64zM192 576h64v-64h-64v64zM256 576h64v-64h-64v64zM320 576h64v-64h-64v64zM384 576h64v-64h-64v64zM448 576h64v-64h-64v64zM512 576h64v-64h-64v64zM576 576h64v-64h-64v64zM640 576h64v-64h-64v64zM704 576h64v-64h-64v64zM768 576h64v-64h-64v64zM64 512h64v-64h-64v64zM832 512h64v-64h-64v64zM0 448h64v-64h-64v64zM192 448h64v-64h-64v64zM704 448h64v-64h-64v64zM896 448h64v-64h-64v64zM0 384h64v-64h-64v64zM128 384h64v-64h-64v64zM192 384h64v-64h-64v64zM256 384h64v-64h-64v64zM640 384h64v-64h-64v64zM768 384h64v-64h-64v64zM896 384h64v-64h-64v64zM0 320h64v-64h-64v64zM192 320h64v-64h-64v64zM384 320h64v-64h-64v64zM512 320h64v-64h-64v64zM704 320h64v-64h-64v64zM896 320h64v-64h-64v64zM64 256h64v-64h-64v64zM832 256h64v-64h-64v64zM128 192h64v-64h-64v64zM192 192h64v-64h-64v64zM256 192h64v-64h-64v64zM320 192h64v-64h-64v64zM384 192h64v-64h-64v64zM448 192h64v-64h-64v64zM512 192h64v-64h-64v64zM576 192h64v-64h-64v64zM640 192h64v-64h-64v64zM704 192h64v-64h-64v64zM768 192h64v-64h-64v64z" />
<glyph unicode="&#xe903;" glyph-name="square" d="M64 960h64v-64h-64v64zM128 960h64v-64h-64v64zM192 960h64v-64h-64v64zM256 960h64v-64h-64v64zM320 960h64v-64h-64v64zM384 960h64v-64h-64v64zM448 960h64v-64h-64v64zM512 960h64v-64h-64v64zM576 960h64v-64h-64v64zM640 960h64v-64h-64v64zM704 960h64v-64h-64v64zM768 960h64v-64h-64v64zM832 960h64v-64h-64v64zM896 960h64v-64h-64v64zM0 896h64v-64h-64v64zM960 896h64v-64h-64v64zM0 832h64v-64h-64v64zM960 832h64v-64h-64v64zM0 768h64v-64h-64v64zM960 768h64v-64h-64v64zM0 704h64v-64h-64v64zM960 704h64v-64h-64v64zM0 640h64v-64h-64v64zM960 640h64v-64h-64v64zM0 576h64v-64h-64v64zM960 576h64v-64h-64v64zM0 512h64v-64h-64v64zM960 512h64v-64h-64v64zM0 448h64v-64h-64v64zM960 448h64v-64h-64v64zM0 384h64v-64h-64v64zM960 384h64v-64h-64v64zM0 320h64v-64h-64v64zM960 320h64v-64h-64v64zM0 256h64v-64h-64v64zM960 256h64v-64h-64v64zM0 192h64v-64h-64v64zM960 192h64v-64h-64v64zM0 128h64v-64h-64v64zM960 128h64v-64h-64v64zM0 64h64v-64h-64v64zM960 64h64v-64h-64v64zM64 0h64v-64h-64v64zM128 0h64v-64h-64v64zM192 0h64v-64h-64v64zM256 0h64v-64h-64v64zM320 0h64v-64h-64v64zM384 0h64v-64h-64v64zM448 0h64v-64h-64v64zM512 0h64v-64h-64v64zM576 0h64v-64h-64v64zM640 0h64v-64h-64v64zM704 0h64v-64h-64v64zM768 0h64v-64h-64v64zM832 0h64v-64h-64v64zM896 0h64v-64h-64v64z" />
<glyph unicode="&#xe904;" glyph-name="star" d="M448 960h64v-64h-64v64zM384 896h64v-64h-64v64zM512 896h64v-64h-64v64zM384 832h64v-64h-64v64zM512 832h64v-64h-64v64zM320 768h64v-64h-64v64zM576 768h64v-64h-64v64zM320 704h64v-64h-64v64zM384 704h64v-64h-64v64zM448 704h64v-64h-64v64zM576 704h64v-64h-64v64zM0 640h64v-64h-64v64zM64 640h64v-64h-64v64zM128 640h64v-64h-64v64zM192 640h64v-64h-64v64zM256 640h64v-64h-64v64zM320 640h64v-64h-64v64zM384 640h64v-64h-64v64zM640 640h64v-64h-64v64zM704 640h64v-64h-64v64zM768 640h64v-64h-64v64zM832 640h64v-64h-64v64zM896 640h64v-64h-64v64zM0 576h64v-64h-64v64zM256 576h64v-64h-64v64zM320 576h64v-64h-64v64zM896 576h64v-64h-64v64zM64 512h64v-64h-64v64zM256 512h64v-64h-64v64zM832 512h64v-64h-64v64zM128 448h64v-64h-64v64zM768 448h64v-64h-64v64zM192 384h64v-64h-64v64zM704 384h64v-64h-64v64zM128 320h64v-64h-64v64zM768 320h64v-64h-64v64zM128 256h64v-64h-64v64zM768 256h64v-64h-64v64zM64 192h64v-64h-64v64zM448 192h64v-64h-64v64zM832 192h64v-64h-64v64zM64 128h64v-64h-64v64zM320 128h64v-64h-64v64zM384 128h64v-64h-64v64zM512 128h64v-64h-64v64zM576 128h64v-64h-64v64zM832 128h64v-64h-64v64zM0 64h64v-64h-64v64zM192 64h64v-64h-64v64zM256 64h64v-64h-64v64zM640 64h64v-64h-64v64zM704 64h64v-64h-64v64zM896 64h64v-64h-64v64zM0 0h64v-64h-64v64zM64 0h64v-64h-64v64zM128 0h64v-64h-64v64zM768 0h64v-64h-64v64zM832 0h64v-64h-64v64zM896 0h64v-64h-64v64z" />
<glyph unicode="&#xe905;" glyph-name="thumbs-up" d="M448 896h64v-64h-64v64zM512 896h64v-64h-64v64zM448 832h64v-64h-64v64zM576 832h64v-64h-64v64zM448 768h64v-64h-64v64zM576 768h64v-64h-64v64zM384 704h64v-64h-64v64zM576 704h64v-64h-64v64zM384 640h64v-64h-64v64zM576 640h64v-64h-64v64zM640 640h64v-64h-64v64zM704 640h64v-64h-64v64zM768 640h64v-64h-64v64zM832 640h64v-64h-64v64zM896 640h64v-64h-64v64zM320 576h64v-64h-64v64zM960 576h64v-64h-64v64zM64 512h64v-64h-64v64zM128 512h64v-64h-64v64zM192 512h64v-64h-64v64zM320 512h64v-64h-64v64zM960 512h64v-64h-64v64zM0 448h64v-64h-64v64zM256 448h64v-64h-64v64zM960 448h64v-64h-64v64zM0 384h64v-64h-64v64zM256 384h64v-64h-64v64zM896 384h64v-64h-64v64zM0 320h64v-64h-64v64zM256 320h64v-64h-64v64zM896 320h64v-64h-64v64zM0 256h64v-64h-64v64zM256 256h64v-64h-64v64zM896 256h64v-64h-64v64zM0 192h64v-64h-64v64zM256 192h64v-64h-64v64zM832 192h64v-64h-64v64zM0 128h64v-64h-64v64zM256 128h64v-64h-64v64zM832 128h64v-64h-64v64zM64 64h64v-64h-64v64zM128 64h64v-64h-64v64zM192 64h64v-64h-64v64zM320 64h64v-64h-64v64zM384 64h64v-64h-64v64zM448 64h64v-64h-64v64zM512 64h64v-64h-64v64zM576 64h64v-64h-64v64zM640 64h64v-64h-64v64zM704 64h64v-64h-64v64zM768 64h64v-64h-64v64z" />
<glyph unicode="&#xe906;" glyph-name="times" d="M64 896h64v-64h-64v64zM128 896h64v-64h-64v64zM832 896h64v-64h-64v64zM896 896h64v-64h-64v64zM64 832h64v-64h-64v64zM128 832h64v-64h-64v64zM192 832h64v-64h-64v64zM768 832h64v-64h-64v64zM832 832h64v-64h-64v64zM896 832h64v-64h-64v64zM128 768h64v-64h-64v64zM192 768h64v-64h-64v64zM256 768h64v-64h-64v64zM704 768h64v-64h-64v64zM768 768h64v-64h-64v64zM832 768h64v-64h-64v64zM192 704h64v-64h-64v64zM256 704h64v-64h-64v64zM320 704h64v-64h-64v64zM640 704h64v-64h-64v64zM704 704h64v-64h-64v64zM768 704h64v-64h-64v64zM256 640h64v-64h-64v64zM320 640h64v-64h-64v64zM384 640h64v-64h-64v64zM576 640h64v-64h-64v64zM640 640h64v-64h-64v64zM704 640h64v-64h-64v64zM320 576h64v-64h-64v64zM384 576h64v-64h-64v64zM448 576h64v-64h-64v64zM512 576h64v-64h-64v64zM576 576h64v-64h-64v64zM640 576h64v-64h-64v64zM384 512h64v-64h-64v64zM448 512h64v-64h-64v64zM512 512h64v-64h-64v64zM576 512h64v-64h-64v64zM384 448h64v-64h-64v64zM448 448h64v-64h-64v64zM512 448h64v-64h-64v64zM576 448h64v-64h-64v64zM320 384h64v-64h-64v64zM384 384h64v-64h-64v64zM448 384h64v-64h-64v64zM512 384h64v-64h-64v64zM576 384h64v-64h-64v64zM640 384h64v-64h-64v64zM256 320h64v-64h-64v64zM320 320h64v-64h-64v64zM384 320h64v-64h-64v64zM576 320h64v-64h-64v64zM640 320h64v-64h-64v64zM704 320h64v-64h-64v64zM192 256h64v-64h-64v64zM256 256h64v-64h-64v64zM320 256h64v-64h-64v64zM640 256h64v-64h-64v64zM704 256h64v-64h-64v64zM768 256h64v-64h-64v64zM128 192h64v-64h-64v64zM192 192h64v-64h-64v64zM256 192h64v-64h-64v64zM704 192h64v-64h-64v64zM768 192h64v-64h-64v64zM832 192h64v-64h-64v64zM64 128h64v-64h-64v64zM128 128h64v-64h-64v64zM192 128h64v-64h-64v64zM768 128h64v-64h-64v64zM832 128h64v-64h-64v64zM896 128h64v-64h-64v64zM64 64h64v-64h-64v64zM128 64h64v-64h-64v64zM832 64h64v-64h-64v64zM896 64h64v-64h-64v64z" />
<glyph unicode="&#xe907;" glyph-name="trophy" d="M128 960h64v-64h-64v64zM192 960h64v-64h-64v64zM256 960h64v-64h-64v64zM320 960h64v-64h-64v64zM384 960h64v-64h-64v64zM448 960h64v-64h-64v64zM512 960h64v-64h-64v64zM576 960h64v-64h-64v64zM640 960h64v-64h-64v64zM704 960h64v-64h-64v64zM768 960h64v-64h-64v64zM128 896h64v-64h-64v64zM768 896h64v-64h-64v64zM0 832h64v-64h-64v64zM64 832h64v-64h-64v64zM128 832h64v-64h-64v64zM256 832h64v-64h-64v64zM768 832h64v-64h-64v64zM832 832h64v-64h-64v64zM896 832h64v-64h-64v64zM0 768h64v-64h-64v64zM128 768h64v-64h-64v64zM256 768h64v-64h-64v64zM768 768h64v-64h-64v64zM896 768h64v-64h-64v64zM0 704h64v-64h-64v64zM128 704h64v-64h-64v64zM256 704h64v-64h-64v64zM768 704h64v-64h-64v64zM896 704h64v-64h-64v64zM64 640h64v-64h-64v64zM128 640h64v-64h-64v64zM256 640h64v-64h-64v64zM768 640h64v-64h-64v64zM832 640h64v-64h-64v64zM128 576h64v-64h-64v64zM256 576h64v-64h-64v64zM768 576h64v-64h-64v64zM128 512h64v-64h-64v64zM768 512h64v-64h-64v64zM192 448h64v-64h-64v64zM704 448h64v-64h-64v64zM256 384h64v-64h-64v64zM640 384h64v-64h-64v64zM320 320h64v-64h-64v64zM576 320h64v-64h-64v64zM384 256h64v-64h-64v64zM512 256h64v-64h-64v64zM384 192h64v-64h-64v64zM512 192h64v-64h-64v64zM320 128h64v-64h-64v64zM384 128h64v-64h-64v64zM512 128h64v-64h-64v64zM576 128h64v-64h-64v64zM256 64h64v-64h-64v64zM640 64h64v-64h-64v64zM256 0h64v-64h-64v64zM320 0h64v-64h-64v64zM384 0h64v-64h-64v64zM448 0h64v-64h-64v64zM512 0h64v-64h-64v64zM576 0h64v-64h-64v64zM640 0h64v-64h-64v64z" />
<glyph unicode="&#xe908;" glyph-name="twitch" d="M64 960h64v-64h-64v64zM128 960h64v-64h-64v64zM192 960h64v-64h-64v64zM256 960h64v-64h-64v64zM320 960h64v-64h-64v64zM384 960h64v-64h-64v64zM448 960h64v-64h-64v64zM512 960h64v-64h-64v64zM576 960h64v-64h-64v64zM640 960h64v-64h-64v64zM704 960h64v-64h-64v64zM768 960h64v-64h-64v64zM832 960h64v-64h-64v64zM896 960h64v-64h-64v64zM960 960h64v-64h-64v64zM0 896h64v-64h-64v64zM64 896h64v-64h-64v64zM960 896h64v-64h-64v64zM0 832h64v-64h-64v64zM64 832h64v-64h-64v64zM960 832h64v-64h-64v64zM0 768h64v-64h-64v64zM64 768h64v-64h-64v64zM384 768h64v-64h-64v64zM448 768h64v-64h-64v64zM704 768h64v-64h-64v64zM768 768h64v-64h-64v64zM960 768h64v-64h-64v64zM0 704h64v-64h-64v64zM64 704h64v-64h-64v64zM384 704h64v-64h-64v64zM448 704h64v-64h-64v64zM704 704h64v-64h-64v64zM768 704h64v-64h-64v64zM960 704h64v-64h-64v64zM0 640h64v-64h-64v64zM64 640h64v-64h-64v64zM384 640h64v-64h-64v64zM448 640h64v-64h-64v64zM704 640h64v-64h-64v64zM768 640h64v-64h-64v64zM960 640h64v-64h-64v64zM0 576h64v-64h-64v64zM64 576h64v-64h-64v64zM384 576h64v-64h-64v64zM448 576h64v-64h-64v64zM704 576h64v-64h-64v64zM768 576h64v-64h-64v64zM960 576h64v-64h-64v64zM0 512h64v-64h-64v64zM64 512h64v-64h-64v64zM384 512h64v-64h-64v64zM448 512h64v-64h-64v64zM704 512h64v-64h-64v64zM768 512h64v-64h-64v64zM960 512h64v-64h-64v64zM0 448h64v-64h-64v64zM64 448h64v-64h-64v64zM960 448h64v-64h-64v64zM0 384h64v-64h-64v64zM64 384h64v-64h-64v64zM960 384h64v-64h-64v64zM0 320h64v-64h-64v64zM64 320h64v-64h-64v64zM896 320h64v-64h-64v64zM960 320h64v-64h-64v64zM0 256h64v-64h-64v64zM64 256h64v-64h-64v64zM832 256h64v-64h-64v64zM896 256h64v-64h-64v64zM0 192h64v-64h-64v64zM64 192h64v-64h-64v64zM128 192h64v-64h-64v64zM192 192h64v-64h-64v64zM384 192h64v-64h-64v64zM448 192h64v-64h-64v64zM512 192h64v-64h-64v64zM576 192h64v-64h-64v64zM640 192h64v-64h-64v64zM704 192h64v-64h-64v64zM768 192h64v-64h-64v64zM832 192h64v-64h-64v64zM0 128h64v-64h-64v64zM64 128h64v-64h-64v64zM128 128h64v-64h-64v64zM192 128h64v-64h-64v64zM320 128h64v-64h-64v64zM384 128h64v-64h-64v64zM448 128h64v-64h-64v64zM512 128h64v-64h-64v64zM576 128h64v-64h-64v64zM640 128h64v-64h-64v64zM704 128h64v-64h-64v64zM768 128h64v-64h-64v64zM192 64h64v-64h-64v64zM256 64h64v-64h-64v64zM320 64h64v-64h-64v64zM384 64h64v-64h-64v64zM192 0h64v-64h-64v64zM256 0h64v-64h-64v64z" />
<glyph unicode="&#xe909;" glyph-name="twitch-square" d="M64 960h64v-64h-64v64zM128 960h64v-64h-64v64zM192 960h64v-64h-64v64zM256 960h64v-64h-64v64zM320 960h64v-64h-64v64zM384 960h64v-64h-64v64zM448 960h64v-64h-64v64zM512 960h64v-64h-64v64zM576 960h64v-64h-64v64zM640 960h64v-64h-64v64zM704 960h64v-64h-64v64zM768 960h64v-64h-64v64zM832 960h64v-64h-64v64zM896 960h64v-64h-64v64zM960 960h64v-64h-64v64zM0 896h64v-64h-64v64zM64 896h64v-64h-64v64zM960 896h64v-64h-64v64zM0 832h64v-64h-64v64zM64 832h64v-64h-64v64zM960 832h64v-64h-64v64zM0 768h64v-64h-64v64zM64 768h64v-64h-64v64zM384 768h64v-64h-64v64zM448 768h64v-64h-64v64zM704 768h64v-64h-64v64zM768 768h64v-64h-64v64zM960 768h64v-64h-64v64zM0 704h64v-64h-64v64zM64 704h64v-64h-64v64zM384 704h64v-64h-64v64zM448 704h64v-64h-64v64zM704 704h64v-64h-64v64zM768 704h64v-64h-64v64zM960 704h64v-64h-64v64zM0 640h64v-64h-64v64zM64 640h64v-64h-64v64zM384 640h64v-64h-64v64zM448 640h64v-64h-64v64zM704 640h64v-64h-64v64zM768 640h64v-64h-64v64zM960 640h64v-64h-64v64zM0 576h64v-64h-64v64zM64 576h64v-64h-64v64zM384 576h64v-64h-64v64zM448 576h64v-64h-64v64zM704 576h64v-64h-64v64zM768 576h64v-64h-64v64zM960 576h64v-64h-64v64zM0 512h64v-64h-64v64zM64 512h64v-64h-64v64zM384 512h64v-64h-64v64zM448 512h64v-64h-64v64zM704 512h64v-64h-64v64zM768 512h64v-64h-64v64zM960 512h64v-64h-64v64zM0 448h64v-64h-64v64zM64 448h64v-64h-64v64zM960 448h64v-64h-64v64zM0 384h64v-64h-64v64zM64 384h64v-64h-64v64zM960 384h64v-64h-64v64zM0 320h64v-64h-64v64zM64 320h64v-64h-64v64zM896 320h64v-64h-64v64zM960 320h64v-64h-64v64zM0 256h64v-64h-64v64zM64 256h64v-64h-64v64zM832 256h64v-64h-64v64zM896 256h64v-64h-64v64zM0 192h64v-64h-64v64zM64 192h64v-64h-64v64zM128 192h64v-64h-64v64zM192 192h64v-64h-64v64zM384 192h64v-64h-64v64zM448 192h64v-64h-64v64zM512 192h64v-64h-64v64zM576 192h64v-64h-64v64zM640 192h64v-64h-64v64zM704 192h64v-64h-64v64zM768 192h64v-64h-64v64zM832 192h64v-64h-64v64zM0 128h64v-64h-64v64zM64 128h64v-64h-64v64zM128 128h64v-64h-64v64zM192 128h64v-64h-64v64zM320 128h64v-64h-64v64zM384 128h64v-64h-64v64zM448 128h64v-64h-64v64zM512 128h64v-64h-64v64zM576 128h64v-64h-64v64zM640 128h64v-64h-64v64zM704 128h64v-64h-64v64zM768 128h64v-64h-64v64zM192 64h64v-64h-64v64zM256 64h64v-64h-64v64zM320 64h64v-64h-64v64zM384 64h64v-64h-64v64zM192 0h64v-64h-64v64zM256 0h64v-64h-64v64z" />
<glyph unicode="&#xe90a;" glyph-name="twitter" d="M64 832h64v-64h-64v64zM576 832h64v-64h-64v64zM640 832h64v-64h-64v64zM704 832h64v-64h-64v64zM64 768h64v-64h-64v64zM128 768h64v-64h-64v64zM192 768h64v-64h-64v64zM512 768h64v-64h-64v64zM576 768h64v-64h-64v64zM640 768h64v-64h-64v64zM704 768h64v-64h-64v64zM768 768h64v-64h-64v64zM64 704h64v-64h-64v64zM128 704h64v-64h-64v64zM192 704h64v-64h-64v64zM256 704h64v-64h-64v64zM320 704h64v-64h-64v64zM448 704h64v-64h-64v64zM512 704h64v-64h-64v64zM576 704h64v-64h-64v64zM640 704h64v-64h-64v64zM704 704h64v-64h-64v64zM768 704h64v-64h-64v64zM832 704h64v-64h-64v64zM896 704h64v-64h-64v64zM128 640h64v-64h-64v64zM192 640h64v-64h-64v64zM256 640h64v-64h-64v64zM320 640h64v-64h-64v64zM384 640h64v-64h-64v64zM448 640h64v-64h-64v64zM512 640h64v-64h-64v64zM576 640h64v-64h-64v64zM640 640h64v-64h-64v64zM704 640h64v-64h-64v64zM768 640h64v-64h-64v64zM832 640h64v-64h-64v64zM128 576h64v-64h-64v64zM192 576h64v-64h-64v64zM256 576h64v-64h-64v64zM320 576h64v-64h-64v64zM384 576h64v-64h-64v64zM448 576h64v-64h-64v64zM512 576h64v-64h-64v64zM576 576h64v-64h-64v64zM640 576h64v-64h-64v64zM704 576h64v-64h-64v64zM768 576h64v-64h-64v64zM832 576h64v-64h-64v64zM192 512h64v-64h-64v64zM256 512h64v-64h-64v64zM320 512h64v-64h-64v64zM384 512h64v-64h-64v64zM448 512h64v-64h-64v64zM512 512h64v-64h-64v64zM576 512h64v-64h-64v64zM640 512h64v-64h-64v64zM704 512h64v-64h-64v64zM768 512h64v-64h-64v64zM192 448h64v-64h-64v64zM256 448h64v-64h-64v64zM320 448h64v-64h-64v64zM384 448h64v-64h-64v64zM448 448h64v-64h-64v64zM512 448h64v-64h-64v64zM576 448h64v-64h-64v64zM640 448h64v-64h-64v64zM704 448h64v-64h-64v64zM256 384h64v-64h-64v64zM320 384h64v-64h-64v64zM384 384h64v-64h-64v64zM448 384h64v-64h-64v64zM512 384h64v-64h-64v64zM576 384h64v-64h-64v64zM640 384h64v-64h-64v64zM704 384h64v-64h-64v64zM320 320h64v-64h-64v64zM384 320h64v-64h-64v64zM448 320h64v-64h-64v64zM512 320h64v-64h-64v64zM576 320h64v-64h-64v64zM640 320h64v-64h-64v64zM704 320h64v-64h-64v64zM256 256h64v-64h-64v64zM320 256h64v-64h-64v64zM384 256h64v-64h-64v64zM448 256h64v-64h-64v64zM512 256h64v-64h-64v64zM576 256h64v-64h-64v64zM640 256h64v-64h-64v64zM128 192h64v-64h-64v64zM192 192h64v-64h-64v64zM256 192h64v-64h-64v64zM320 192h64v-64h-64v64zM384 192h64v-64h-64v64zM448 192h64v-64h-64v64zM512 192h64v-64h-64v64zM192 128h64v-64h-64v64zM256 128h64v-64h-64v64zM320 128h64v-64h-64v64z" />
<glyph unicode="&#xe90b;" glyph-name="twitter-square" d="M64 960h64v-64h-64v64zM128 960h64v-64h-64v64zM192 960h64v-64h-64v64zM256 960h64v-64h-64v64zM320 960h64v-64h-64v64zM384 960h64v-64h-64v64zM448 960h64v-64h-64v64zM512 960h64v-64h-64v64zM576 960h64v-64h-64v64zM640 960h64v-64h-64v64zM704 960h64v-64h-64v64zM768 960h64v-64h-64v64zM832 960h64v-64h-64v64zM896 960h64v-64h-64v64zM0 896h64v-64h-64v64zM64 896h64v-64h-64v64zM128 896h64v-64h-64v64zM192 896h64v-64h-64v64zM256 896h64v-64h-64v64zM320 896h64v-64h-64v64zM384 896h64v-64h-64v64zM448 896h64v-64h-64v64zM512 896h64v-64h-64v64zM576 896h64v-64h-64v64zM640 896h64v-64h-64v64zM704 896h64v-64h-64v64zM768 896h64v-64h-64v64zM832 896h64v-64h-64v64zM896 896h64v-64h-64v64zM960 896h64v-64h-64v64zM0 832h64v-64h-64v64zM128 832h64v-64h-64v64zM192 832h64v-64h-64v64zM256 832h64v-64h-64v64zM320 832h64v-64h-64v64zM384 832h64v-64h-64v64zM448 832h64v-64h-64v64zM512 832h64v-64h-64v64zM768 832h64v-64h-64v64zM832 832h64v-64h-64v64zM896 832h64v-64h-64v64zM960 832h64v-64h-64v64zM0 768h64v-64h-64v64zM256 768h64v-64h-64v64zM320 768h64v-64h-64v64zM384 768h64v-64h-64v64zM448 768h64v-64h-64v64zM832 768h64v-64h-64v64zM896 768h64v-64h-64v64zM960 768h64v-64h-64v64zM0 704h64v-64h-64v64zM384 704h64v-64h-64v64zM960 704h64v-64h-64v64zM0 640h64v-64h-64v64zM64 640h64v-64h-64v64zM896 640h64v-64h-64v64zM960 640h64v-64h-64v64zM0 576h64v-64h-64v64zM64 576h64v-64h-64v64zM896 576h64v-64h-64v64zM960 576h64v-64h-64v64zM0 512h64v-64h-64v64zM64 512h64v-64h-64v64zM128 512h64v-64h-64v64zM832 512h64v-64h-64v64zM896 512h64v-64h-64v64zM960 512h64v-64h-64v64zM0 448h64v-64h-64v64zM64 448h64v-64h-64v64zM128 448h64v-64h-64v64zM768 448h64v-64h-64v64zM832 448h64v-64h-64v64zM896 448h64v-64h-64v64zM960 448h64v-64h-64v64zM0 384h64v-64h-64v64zM64 384h64v-64h-64v64zM128 384h64v-64h-64v64zM192 384h64v-64h-64v64zM768 384h64v-64h-64v64zM832 384h64v-64h-64v64zM896 384h64v-64h-64v64zM960 384h64v-64h-64v64zM0 320h64v-64h-64v64zM64 320h64v-64h-64v64zM128 320h64v-64h-64v64zM192 320h64v-64h-64v64zM256 320h64v-64h-64v64zM768 320h64v-64h-64v64zM832 320h64v-64h-64v64zM896 320h64v-64h-64v64zM960 320h64v-64h-64v64zM0 256h64v-64h-64v64zM64 256h64v-64h-64v64zM128 256h64v-64h-64v64zM192 256h64v-64h-64v64zM704 256h64v-64h-64v64zM768 256h64v-64h-64v64zM832 256h64v-64h-64v64zM896 256h64v-64h-64v64zM960 256h64v-64h-64v64zM0 192h64v-64h-64v64zM64 192h64v-64h-64v64zM576 192h64v-64h-64v64zM640 192h64v-64h-64v64zM704 192h64v-64h-64v64zM768 192h64v-64h-64v64zM832 192h64v-64h-64v64zM896 192h64v-64h-64v64zM960 192h64v-64h-64v64zM0 128h64v-64h-64v64zM64 128h64v-64h-64v64zM128 128h64v-64h-64v64zM384 128h64v-64h-64v64zM448 128h64v-64h-64v64zM512 128h64v-64h-64v64zM576 128h64v-64h-64v64zM640 128h64v-64h-64v64zM704 128h64v-64h-64v64zM768 128h64v-64h-64v64zM832 128h64v-64h-64v64zM896 128h64v-64h-64v64zM960 128h64v-64h-64v64zM0 64h64v-64h-64v64zM64 64h64v-64h-64v64zM128 64h64v-64h-64v64zM192 64h64v-64h-64v64zM256 64h64v-64h-64v64zM320 64h64v-64h-64v64zM384 64h64v-64h-64v64zM448 64h64v-64h-64v64zM512 64h64v-64h-64v64zM576 64h64v-64h-64v64zM640 64h64v-64h-64v64zM704 64h64v-64h-64v64zM768 64h64v-64h-64v64zM832 64h64v-64h-64v64zM896 64h64v-64h-64v64zM960 64h64v-64h-64v64zM64 0h64v-64h-64v64zM128 0h64v-64h-64v64zM192 0h64v-64h-64v64zM256 0h64v-64h-64v64zM320 0h64v-64h-64v64zM384 0h64v-64h-64v64zM448 0h64v-64h-64v64zM512 0h64v-64h-64v64zM576 0h64v-64h-64v64zM640 0h64v-64h-64v64zM704 0h64v-64h-64v64zM768 0h64v-64h-64v64zM832 0h64v-64h-64v64zM896 0h64v-64h-64v64z" />
<glyph unicode="&#xe90c;" glyph-name="user" d="M384 960h64v-64h-64v64zM448 960h64v-64h-64v64zM512 960h64v-64h-64v64zM576 960h64v-64h-64v64zM256 896h64v-64h-64v64zM320 896h64v-64h-64v64zM384 896h64v-64h-64v64zM448 896h64v-64h-64v64zM512 896h64v-64h-64v64zM576 896h64v-64h-64v64zM640 896h64v-64h-64v64zM704 896h64v-64h-64v64zM256 832h64v-64h-64v64zM320 832h64v-64h-64v64zM384 832h64v-64h-64v64zM448 832h64v-64h-64v64zM512 832h64v-64h-64v64zM576 832h64v-64h-64v64zM640 832h64v-64h-64v64zM704 832h64v-64h-64v64zM192 768h64v-64h-64v64zM256 768h64v-64h-64v64zM320 768h64v-64h-64v64zM384 768h64v-64h-64v64zM448 768h64v-64h-64v64zM512 768h64v-64h-64v64zM576 768h64v-64h-64v64zM640 768h64v-64h-64v64zM704 768h64v-64h-64v64zM768 768h64v-64h-64v64zM192 704h64v-64h-64v64zM256 704h64v-64h-64v64zM320 704h64v-64h-64v64zM384 704h64v-64h-64v64zM448 704h64v-64h-64v64zM512 704h64v-64h-64v64zM576 704h64v-64h-64v64zM640 704h64v-64h-64v64zM704 704h64v-64h-64v64zM768 704h64v-64h-64v64zM192 640h64v-64h-64v64zM256 640h64v-64h-64v64zM320 640h64v-64h-64v64zM384 640h64v-64h-64v64zM448 640h64v-64h-64v64zM512 640h64v-64h-64v64zM576 640h64v-64h-64v64zM640 640h64v-64h-64v64zM704 640h64v-64h-64v64zM768 640h64v-64h-64v64zM256 576h64v-64h-64v64zM320 576h64v-64h-64v64zM384 576h64v-64h-64v64zM448 576h64v-64h-64v64zM512 576h64v-64h-64v64zM576 576h64v-64h-64v64zM640 576h64v-64h-64v64zM704 576h64v-64h-64v64zM256 512h64v-64h-64v64zM320 512h64v-64h-64v64zM384 512h64v-64h-64v64zM448 512h64v-64h-64v64zM512 512h64v-64h-64v64zM576 512h64v-64h-64v64zM640 512h64v-64h-64v64zM704 512h64v-64h-64v64zM384 448h64v-64h-64v64zM448 448h64v-64h-64v64zM512 448h64v-64h-64v64zM576 448h64v-64h-64v64zM192 384h64v-64h-64v64zM256 384h64v-64h-64v64zM704 384h64v-64h-64v64zM768 384h64v-64h-64v64zM64 320h64v-64h-64v64zM128 320h64v-64h-64v64zM192 320h64v-64h-64v64zM256 320h64v-64h-64v64zM320 320h64v-64h-64v64zM640 320h64v-64h-64v64zM704 320h64v-64h-64v64zM768 320h64v-64h-64v64zM832 320h64v-64h-64v64zM896 320h64v-64h-64v64zM0 256h64v-64h-64v64zM64 256h64v-64h-64v64zM128 256h64v-64h-64v64zM192 256h64v-64h-64v64zM256 256h64v-64h-64v64zM320 256h64v-64h-64v64zM384 256h64v-64h-64v64zM448 256h64v-64h-64v64zM512 256h64v-64h-64v64zM576 256h64v-64h-64v64zM640 256h64v-64h-64v64zM704 256h64v-64h-64v64zM768 256h64v-64h-64v64zM832 256h64v-64h-64v64zM896 256h64v-64h-64v64zM960 256h64v-64h-64v64zM0 192h64v-64h-64v64zM64 192h64v-64h-64v64zM128 192h64v-64h-64v64zM192 192h64v-64h-64v64zM256 192h64v-64h-64v64zM320 192h64v-64h-64v64zM384 192h64v-64h-64v64zM448 192h64v-64h-64v64zM512 192h64v-64h-64v64zM576 192h64v-64h-64v64zM640 192h64v-64h-64v64zM704 192h64v-64h-64v64zM768 192h64v-64h-64v64zM832 192h64v-64h-64v64zM896 192h64v-64h-64v64zM960 192h64v-64h-64v64zM0 128h64v-64h-64v64zM64 128h64v-64h-64v64zM128 128h64v-64h-64v64zM192 128h64v-64h-64v64zM256 128h64v-64h-64v64zM320 128h64v-64h-64v64zM384 128h64v-64h-64v64zM448 128h64v-64h-64v64zM512 128h64v-64h-64v64zM576 128h64v-64h-64v64zM640 128h64v-64h-64v64zM704 128h64v-64h-64v64zM768 128h64v-64h-64v64zM832 128h64v-64h-64v64zM896 128h64v-64h-64v64zM960 128h64v-64h-64v64zM0 64h64v-64h-64v64zM64 64h64v-64h-64v64zM128 64h64v-64h-64v64zM192 64h64v-64h-64v64zM256 64h64v-64h-64v64zM320 64h64v-64h-64v64zM384 64h64v-64h-64v64zM448 64h64v-64h-64v64zM512 64h64v-64h-64v64zM576 64h64v-64h-64v64zM640 64h64v-64h-64v64zM704 64h64v-64h-64v64zM768 64h64v-64h-64v64zM832 64h64v-64h-64v64zM896 64h64v-64h-64v64zM960 64h64v-64h-64v64zM64 0h64v-64h-64v64zM128 0h64v-64h-64v64zM192 0h64v-64h-64v64zM256 0h64v-64h-64v64zM320 0h64v-64h-64v64zM384 0h64v-64h-64v64zM448 0h64v-64h-64v64zM512 0h64v-64h-64v64zM576 0h64v-64h-64v64zM640 0h64v-64h-64v64zM704 0h64v-64h-64v64zM768 0h64v-64h-64v64zM832 0h64v-64h-64v64zM896 0h64v-64h-64v64z" />
<glyph unicode="&#xe90d;" glyph-name="users" d="M192 896h64v-64h-64v64zM256 896h64v-64h-64v64zM320 896h64v-64h-64v64zM576 896h64v-64h-64v64zM640 896h64v-64h-64v64zM704 896h64v-64h-64v64zM128 832h64v-64h-64v64zM192 832h64v-64h-64v64zM256 832h64v-64h-64v64zM320 832h64v-64h-64v64zM384 832h64v-64h-64v64zM512 832h64v-64h-64v64zM576 832h64v-64h-64v64zM640 832h64v-64h-64v64zM704 832h64v-64h-64v64zM768 832h64v-64h-64v64zM64 768h64v-64h-64v64zM128 768h64v-64h-64v64zM192 768h64v-64h-64v64zM256 768h64v-64h-64v64zM320 768h64v-64h-64v64zM576 768h64v-64h-64v64zM640 768h64v-64h-64v64zM704 768h64v-64h-64v64zM768 768h64v-64h-64v64zM832 768h64v-64h-64v64zM64 704h64v-64h-64v64zM128 704h64v-64h-64v64zM192 704h64v-64h-64v64zM256 704h64v-64h-64v64zM384 704h64v-64h-64v64zM448 704h64v-64h-64v64zM512 704h64v-64h-64v64zM640 704h64v-64h-64v64zM704 704h64v-64h-64v64zM768 704h64v-64h-64v64zM832 704h64v-64h-64v64zM64 640h64v-64h-64v64zM128 640h64v-64h-64v64zM192 640h64v-64h-64v64zM320 640h64v-64h-64v64zM384 640h64v-64h-64v64zM448 640h64v-64h-64v64zM512 640h64v-64h-64v64zM576 640h64v-64h-64v64zM704 640h64v-64h-64v64zM768 640h64v-64h-64v64zM832 640h64v-64h-64v64zM128 576h64v-64h-64v64zM256 576h64v-64h-64v64zM320 576h64v-64h-64v64zM384 576h64v-64h-64v64zM448 576h64v-64h-64v64zM512 576h64v-64h-64v64zM576 576h64v-64h-64v64zM640 576h64v-64h-64v64zM768 576h64v-64h-64v64zM64 512h64v-64h-64v64zM256 512h64v-64h-64v64zM320 512h64v-64h-64v64zM384 512h64v-64h-64v64zM448 512h64v-64h-64v64zM512 512h64v-64h-64v64zM576 512h64v-64h-64v64zM640 512h64v-64h-64v64zM832 512h64v-64h-64v64zM0 448h64v-64h-64v64zM64 448h64v-64h-64v64zM128 448h64v-64h-64v64zM256 448h64v-64h-64v64zM320 448h64v-64h-64v64zM384 448h64v-64h-64v64zM448 448h64v-64h-64v64zM512 448h64v-64h-64v64zM576 448h64v-64h-64v64zM640 448h64v-64h-64v64zM768 448h64v-64h-64v64zM832 448h64v-64h-64v64zM896 448h64v-64h-64v64zM0 384h64v-64h-64v64zM64 384h64v-64h-64v64zM128 384h64v-64h-64v64zM192 384h64v-64h-64v64zM320 384h64v-64h-64v64zM384 384h64v-64h-64v64zM448 384h64v-64h-64v64zM512 384h64v-64h-64v64zM576 384h64v-64h-64v64zM704 384h64v-64h-64v64zM768 384h64v-64h-64v64zM832 384h64v-64h-64v64zM896 384h64v-64h-64v64zM960 384h64v-64h-64v64zM0 320h64v-64h-64v64zM64 320h64v-64h-64v64zM128 320h64v-64h-64v64zM256 320h64v-64h-64v64zM384 320h64v-64h-64v64zM448 320h64v-64h-64v64zM512 320h64v-64h-64v64zM640 320h64v-64h-64v64zM768 320h64v-64h-64v64zM832 320h64v-64h-64v64zM896 320h64v-64h-64v64zM960 320h64v-64h-64v64zM0 256h64v-64h-64v64zM64 256h64v-64h-64v64zM192 256h64v-64h-64v64zM256 256h64v-64h-64v64zM320 256h64v-64h-64v64zM576 256h64v-64h-64v64zM640 256h64v-64h-64v64zM704 256h64v-64h-64v64zM832 256h64v-64h-64v64zM896 256h64v-64h-64v64zM960 256h64v-64h-64v64zM0 192h64v-64h-64v64zM128 192h64v-64h-64v64zM192 192h64v-64h-64v64zM256 192h64v-64h-64v64zM320 192h64v-64h-64v64zM384 192h64v-64h-64v64zM448 192h64v-64h-64v64zM512 192h64v-64h-64v64zM576 192h64v-64h-64v64zM640 192h64v-64h-64v64zM704 192h64v-64h-64v64zM768 192h64v-64h-64v64zM896 192h64v-64h-64v64zM128 128h64v-64h-64v64zM192 128h64v-64h-64v64zM256 128h64v-64h-64v64zM320 128h64v-64h-64v64zM384 128h64v-64h-64v64zM448 128h64v-64h-64v64zM512 128h64v-64h-64v64zM576 128h64v-64h-64v64zM640 128h64v-64h-64v64zM704 128h64v-64h-64v64zM768 128h64v-64h-64v64zM128 64h64v-64h-64v64zM192 64h64v-64h-64v64zM256 64h64v-64h-64v64zM320 64h64v-64h-64v64zM384 64h64v-64h-64v64zM448 64h64v-64h-64v64zM512 64h64v-64h-64v64zM576 64h64v-64h-64v64zM640 64h64v-64h-64v64zM704 64h64v-64h-64v64zM768 64h64v-64h-64v64zM192 0h64v-64h-64v64zM256 0h64v-64h-64v64zM320 0h64v-64h-64v64zM384 0h64v-64h-64v64zM448 0h64v-64h-64v64zM512 0h64v-64h-64v64zM576 0h64v-64h-64v64zM640 0h64v-64h-64v64zM704 0h64v-64h-64v64z" />
<glyph unicode="&#xe90e;" glyph-name="youtube" d="M128 832h64v-64h-64v64zM192 832h64v-64h-64v64zM128 768h64v-64h-64v64zM192 768h64v-64h-64v64zM256 768h64v-64h-64v64zM320 768h64v-64h-64v64zM128 704h64v-64h-64v64zM192 704h64v-64h-64v64zM256 704h64v-64h-64v64zM320 704h64v-64h-64v64zM384 704h64v-64h-64v64zM448 704h64v-64h-64v64zM128 640h64v-64h-64v64zM192 640h64v-64h-64v64zM256 640h64v-64h-64v64zM320 640h64v-64h-64v64zM384 640h64v-64h-64v64zM448 640h64v-64h-64v64zM512 640h64v-64h-64v64zM576 640h64v-64h-64v64zM128 576h64v-64h-64v64zM192 576h64v-64h-64v64zM256 576h64v-64h-64v64zM320 576h64v-64h-64v64zM384 576h64v-64h-64v64zM448 576h64v-64h-64v64zM512 576h64v-64h-64v64zM576 576h64v-64h-64v64zM640 576h64v-64h-64v64zM704 576h64v-64h-64v64zM128 512h64v-64h-64v64zM192 512h64v-64h-64v64zM256 512h64v-64h-64v64zM320 512h64v-64h-64v64zM384 512h64v-64h-64v64zM448 512h64v-64h-64v64zM512 512h64v-64h-64v64zM576 512h64v-64h-64v64zM640 512h64v-64h-64v64zM704 512h64v-64h-64v64zM768 512h64v-64h-64v64zM832 512h64v-64h-64v64zM128 448h64v-64h-64v64zM192 448h64v-64h-64v64zM256 448h64v-64h-64v64zM320 448h64v-64h-64v64zM384 448h64v-64h-64v64zM448 448h64v-64h-64v64zM512 448h64v-64h-64v64zM576 448h64v-64h-64v64zM640 448h64v-64h-64v64zM704 448h64v-64h-64v64zM768 448h64v-64h-64v64zM832 448h64v-64h-64v64zM128 384h64v-64h-64v64zM192 384h64v-64h-64v64zM256 384h64v-64h-64v64zM320 384h64v-64h-64v64zM384 384h64v-64h-64v64zM448 384h64v-64h-64v64zM512 384h64v-64h-64v64zM576 384h64v-64h-64v64zM640 384h64v-64h-64v64zM704 384h64v-64h-64v64zM128 320h64v-64h-64v64zM192 320h64v-64h-64v64zM256 320h64v-64h-64v64zM320 320h64v-64h-64v64zM384 320h64v-64h-64v64zM448 320h64v-64h-64v64zM512 320h64v-64h-64v64zM576 320h64v-64h-64v64zM128 256h64v-64h-64v64zM192 256h64v-64h-64v64zM256 256h64v-64h-64v64zM320 256h64v-64h-64v64zM384 256h64v-64h-64v64zM448 256h64v-64h-64v64zM128 192h64v-64h-64v64zM192 192h64v-64h-64v64zM256 192h64v-64h-64v64zM320 192h64v-64h-64v64zM128 128h64v-64h-64v64zM192 128h64v-64h-64v64z" />
<glyph unicode="&#xe90f;" glyph-name="youtube-square" d="M64 960h64v-64h-64v64zM128 960h64v-64h-64v64zM192 960h64v-64h-64v64zM256 960h64v-64h-64v64zM320 960h64v-64h-64v64zM384 960h64v-64h-64v64zM448 960h64v-64h-64v64zM512 960h64v-64h-64v64zM576 960h64v-64h-64v64zM640 960h64v-64h-64v64zM704 960h64v-64h-64v64zM768 960h64v-64h-64v64zM832 960h64v-64h-64v64zM896 960h64v-64h-64v64zM0 896h64v-64h-64v64zM64 896h64v-64h-64v64zM128 896h64v-64h-64v64zM192 896h64v-64h-64v64zM256 896h64v-64h-64v64zM320 896h64v-64h-64v64zM384 896h64v-64h-64v64zM448 896h64v-64h-64v64zM512 896h64v-64h-64v64zM576 896h64v-64h-64v64zM640 896h64v-64h-64v64zM704 896h64v-64h-64v64zM768 896h64v-64h-64v64zM832 896h64v-64h-64v64zM896 896h64v-64h-64v64zM960 896h64v-64h-64v64zM0 832h64v-64h-64v64zM64 832h64v-64h-64v64zM128 832h64v-64h-64v64zM192 832h64v-64h-64v64zM256 832h64v-64h-64v64zM320 832h64v-64h-64v64zM384 832h64v-64h-64v64zM448 832h64v-64h-64v64zM512 832h64v-64h-64v64zM576 832h64v-64h-64v64zM640 832h64v-64h-64v64zM704 832h64v-64h-64v64zM768 832h64v-64h-64v64zM832 832h64v-64h-64v64zM896 832h64v-64h-64v64zM960 832h64v-64h-64v64zM0 768h64v-64h-64v64zM64 768h64v-64h-64v64zM128 768h64v-64h-64v64zM192 768h64v-64h-64v64zM256 768h64v-64h-64v64zM320 768h64v-64h-64v64zM448 768h64v-64h-64v64zM512 768h64v-64h-64v64zM576 768h64v-64h-64v64zM640 768h64v-64h-64v64zM704 768h64v-64h-64v64zM768 768h64v-64h-64v64zM832 768h64v-64h-64v64zM896 768h64v-64h-64v64zM960 768h64v-64h-64v64zM0 704h64v-64h-64v64zM64 704h64v-64h-64v64zM128 704h64v-64h-64v64zM192 704h64v-64h-64v64zM256 704h64v-64h-64v64zM320 704h64v-64h-64v64zM512 704h64v-64h-64v64zM576 704h64v-64h-64v64zM640 704h64v-64h-64v64zM704 704h64v-64h-64v64zM768 704h64v-64h-64v64zM832 704h64v-64h-64v64zM896 704h64v-64h-64v64zM960 704h64v-64h-64v64zM0 640h64v-64h-64v64zM64 640h64v-64h-64v64zM128 640h64v-64h-64v64zM192 640h64v-64h-64v64zM256 640h64v-64h-64v64zM320 640h64v-64h-64v64zM576 640h64v-64h-64v64zM640 640h64v-64h-64v64zM704 640h64v-64h-64v64zM768 640h64v-64h-64v64zM832 640h64v-64h-64v64zM896 640h64v-64h-64v64zM960 640h64v-64h-64v64zM0 576h64v-64h-64v64zM64 576h64v-64h-64v64zM128 576h64v-64h-64v64zM192 576h64v-64h-64v64zM256 576h64v-64h-64v64zM320 576h64v-64h-64v64zM640 576h64v-64h-64v64zM704 576h64v-64h-64v64zM768 576h64v-64h-64v64zM832 576h64v-64h-64v64zM896 576h64v-64h-64v64zM960 576h64v-64h-64v64zM0 512h64v-64h-64v64zM64 512h64v-64h-64v64zM128 512h64v-64h-64v64zM192 512h64v-64h-64v64zM256 512h64v-64h-64v64zM320 512h64v-64h-64v64zM704 512h64v-64h-64v64zM768 512h64v-64h-64v64zM832 512h64v-64h-64v64zM896 512h64v-64h-64v64zM960 512h64v-64h-64v64zM0 448h64v-64h-64v64zM64 448h64v-64h-64v64zM128 448h64v-64h-64v64zM192 448h64v-64h-64v64zM256 448h64v-64h-64v64zM320 448h64v-64h-64v64zM640 448h64v-64h-64v64zM704 448h64v-64h-64v64zM768 448h64v-64h-64v64zM832 448h64v-64h-64v64zM896 448h64v-64h-64v64zM960 448h64v-64h-64v64zM0 384h64v-64h-64v64zM64 384h64v-64h-64v64zM128 384h64v-64h-64v64zM192 384h64v-64h-64v64zM256 384h64v-64h-64v64zM320 384h64v-64h-64v64zM576 384h64v-64h-64v64zM640 384h64v-64h-64v64zM704 384h64v-64h-64v64zM768 384h64v-64h-64v64zM832 384h64v-64h-64v64zM896 384h64v-64h-64v64zM960 384h64v-64h-64v64zM0 320h64v-64h-64v64zM64 320h64v-64h-64v64zM128 320h64v-64h-64v64zM192 320h64v-64h-64v64zM256 320h64v-64h-64v64zM320 320h64v-64h-64v64zM512 320h64v-64h-64v64zM576 320h64v-64h-64v64zM640 320h64v-64h-64v64zM704 320h64v-64h-64v64zM768 320h64v-64h-64v64zM832 320h64v-64h-64v64zM896 320h64v-64h-64v64zM960 320h64v-64h-64v64zM0 256h64v-64h-64v64zM64 256h64v-64h-64v64zM128 256h64v-64h-64v64zM192 256h64v-64h-64v64zM256 256h64v-64h-64v64zM320 256h64v-64h-64v64zM448 256h64v-64h-64v64zM512 256h64v-64h-64v64zM576 256h64v-64h-64v64zM640 256h64v-64h-64v64zM704 256h64v-64h-64v64zM768 256h64v-64h-64v64zM832 256h64v-64h-64v64zM896 256h64v-64h-64v64zM960 256h64v-64h-64v64zM0 192h64v-64h-64v64zM64 192h64v-64h-64v64zM128 192h64v-64h-64v64zM192 192h64v-64h-64v64zM256 192h64v-64h-64v64zM320 192h64v-64h-64v64zM384 192h64v-64h-64v64zM448 192h64v-64h-64v64zM512 192h64v-64h-64v64zM576 192h64v-64h-64v64zM640 192h64v-64h-64v64zM704 192h64v-64h-64v64zM768 192h64v-64h-64v64zM832 192h64v-64h-64v64zM896 192h64v-64h-64v64zM960 192h64v-64h-64v64zM0 128h64v-64h-64v64zM64 128h64v-64h-64v64zM128 128h64v-64h-64v64zM192 128h64v-64h-64v64zM256 128h64v-64h-64v64zM320 128h64v-64h-64v64zM384 128h64v-64h-64v64zM448 128h64v-64h-64v64zM512 128h64v-64h-64v64zM576 128h64v-64h-64v64zM640 128h64v-64h-64v64zM704 128h64v-64h-64v64zM768 128h64v-64h-64v64zM832 128h64v-64h-64v64zM896 128h64v-64h-64v64zM960 128h64v-64h-64v64zM0 64h64v-64h-64v64zM64 64h64v-64h-64v64zM128 64h64v-64h-64v64zM192 64h64v-64h-64v64zM256 64h64v-64h-64v64zM320 64h64v-64h-64v64zM384 64h64v-64h-64v64zM448 64h64v-64h-64v64zM512 64h64v-64h-64v64zM576 64h64v-64h-64v64zM640 64h64v-64h-64v64zM704 64h64v-64h-64v64zM768 64h64v-64h-64v64zM832 64h64v-64h-64v64zM896 64h64v-64h-64v64zM960 64h64v-64h-64v64zM64 0h64v-64h-64v64zM128 0h64v-64h-64v64zM192 0h64v-64h-64v64zM256 0h64v-64h-64v64zM320 0h64v-64h-64v64zM384 0h64v-64h-64v64zM448 0h64v-64h-64v64zM512 0h64v-64h-64v64zM576 0h64v-64h-64v64zM640 0h64v-64h-64v64zM704 0h64v-64h-64v64zM768 0h64v-64h-64v64zM832 0h64v-64h-64v64zM896 0h64v-64h-64v64z" />
<glyph unicode="&#xe910;" glyph-name="ban" d="M320 960h64v-64h-64v64zM384 960h64v-64h-64v64zM448 960h64v-64h-64v64zM512 960h64v-64h-64v64zM576 960h64v-64h-64v64zM640 960h64v-64h-64v64zM192 896h64v-64h-64v64zM256 896h64v-64h-64v64zM704 896h64v-64h-64v64zM768 896h64v-64h-64v64zM128 832h64v-64h-64v64zM832 832h64v-64h-64v64zM64 768h64v-64h-64v64zM192 768h64v-64h-64v64zM896 768h64v-64h-64v64zM64 704h64v-64h-64v64zM256 704h64v-64h-64v64zM896 704h64v-64h-64v64zM0 640h64v-64h-64v64zM320 640h64v-64h-64v64zM960 640h64v-64h-64v64zM0 576h64v-64h-64v64zM384 576h64v-64h-64v64zM960 576h64v-64h-64v64zM0 512h64v-64h-64v64zM448 512h64v-64h-64v64zM960 512h64v-64h-64v64zM0 448h64v-64h-64v64zM512 448h64v-64h-64v64zM960 448h64v-64h-64v64zM0 384h64v-64h-64v64zM576 384h64v-64h-64v64zM960 384h64v-64h-64v64zM0 320h64v-64h-64v64zM640 320h64v-64h-64v64zM960 320h64v-64h-64v64zM64 256h64v-64h-64v64zM704 256h64v-64h-64v64zM896 256h64v-64h-64v64zM64 192h64v-64h-64v64zM768 192h64v-64h-64v64zM896 192h64v-64h-64v64zM128 128h64v-64h-64v64zM832 128h64v-64h-64v64zM192 64h64v-64h-64v64zM256 64h64v-64h-64v64zM704 64h64v-64h-64v64zM768 64h64v-64h-64v64zM320 0h64v-64h-64v64zM384 0h64v-64h-64v64zM448 0h64v-64h-64v64zM512 0h64v-64h-64v64zM576 0h64v-64h-64v64zM640 0h64v-64h-64v64z" />
<glyph unicode="&#xe911;" glyph-name="bars" d="M128 768h64v-64h-64v64zM192 768h64v-64h-64v64zM256 768h64v-64h-64v64zM320 768h64v-64h-64v64zM384 768h64v-64h-64v64zM448 768h64v-64h-64v64zM512 768h64v-64h-64v64zM576 768h64v-64h-64v64zM640 768h64v-64h-64v64zM704 768h64v-64h-64v64zM768 768h64v-64h-64v64zM832 768h64v-64h-64v64zM128 704h64v-64h-64v64zM192 704h64v-64h-64v64zM256 704h64v-64h-64v64zM320 704h64v-64h-64v64zM384 704h64v-64h-64v64zM448 704h64v-64h-64v64zM512 704h64v-64h-64v64zM576 704h64v-64h-64v64zM640 704h64v-64h-64v64zM704 704h64v-64h-64v64zM768 704h64v-64h-64v64zM832 704h64v-64h-64v64zM128 512h64v-64h-64v64zM192 512h64v-64h-64v64zM256 512h64v-64h-64v64zM320 512h64v-64h-64v64zM384 512h64v-64h-64v64zM448 512h64v-64h-64v64zM512 512h64v-64h-64v64zM576 512h64v-64h-64v64zM640 512h64v-64h-64v64zM704 512h64v-64h-64v64zM768 512h64v-64h-64v64zM832 512h64v-64h-64v64zM128 448h64v-64h-64v64zM192 448h64v-64h-64v64zM256 448h64v-64h-64v64zM320 448h64v-64h-64v64zM384 448h64v-64h-64v64zM448 448h64v-64h-64v64zM512 448h64v-64h-64v64zM576 448h64v-64h-64v64zM640 448h64v-64h-64v64zM704 448h64v-64h-64v64zM768 448h64v-64h-64v64zM832 448h64v-64h-64v64zM128 256h64v-64h-64v64zM192 256h64v-64h-64v64zM256 256h64v-64h-64v64zM320 256h64v-64h-64v64zM384 256h64v-64h-64v64zM448 256h64v-64h-64v64zM512 256h64v-64h-64v64zM576 256h64v-64h-64v64zM640 256h64v-64h-64v64zM704 256h64v-64h-64v64zM768 256h64v-64h-64v64zM832 256h64v-64h-64v64zM128 192h64v-64h-64v64zM192 192h64v-64h-64v64zM256 192h64v-64h-64v64zM320 192h64v-64h-64v64zM384 192h64v-64h-64v64zM448 192h64v-64h-64v64zM512 192h64v-64h-64v64zM576 192h64v-64h-64v64zM640 192h64v-64h-64v64zM704 192h64v-64h-64v64zM768 192h64v-64h-64v64zM832 192h64v-64h-64v64z" />
<glyph unicode="&#xe912;" glyph-name="bomb" d="M768 960h64v-64h-64v64zM896 960h64v-64h-64v64zM640 896h64v-64h-64v64zM704 896h64v-64h-64v64zM832 896h64v-64h-64v64zM576 832h64v-64h-64v64zM768 832h64v-64h-64v64zM896 832h64v-64h-64v64zM512 768h64v-64h-64v64zM384 704h64v-64h-64v64zM448 704h64v-64h-64v64zM512 704h64v-64h-64v64zM576 704h64v-64h-64v64zM256 640h64v-64h-64v64zM320 640h64v-64h-64v64zM384 640h64v-64h-64v64zM448 640h64v-64h-64v64zM512 640h64v-64h-64v64zM576 640h64v-64h-64v64zM640 640h64v-64h-64v64zM704 640h64v-64h-64v64zM192 576h64v-64h-64v64zM256 576h64v-64h-64v64zM320 576h64v-64h-64v64zM512 576h64v-64h-64v64zM576 576h64v-64h-64v64zM640 576h64v-64h-64v64zM704 576h64v-64h-64v64zM768 576h64v-64h-64v64zM192 512h64v-64h-64v64zM256 512h64v-64h-64v64zM384 512h64v-64h-64v64zM448 512h64v-64h-64v64zM512 512h64v-64h-64v64zM576 512h64v-64h-64v64zM640 512h64v-64h-64v64zM704 512h64v-64h-64v64zM768 512h64v-64h-64v64zM128 448h64v-64h-64v64zM192 448h64v-64h-64v64zM320 448h64v-64h-64v64zM384 448h64v-64h-64v64zM448 448h64v-64h-64v64zM512 448h64v-64h-64v64zM576 448h64v-64h-64v64zM640 448h64v-64h-64v64zM704 448h64v-64h-64v64zM768 448h64v-64h-64v64zM832 448h64v-64h-64v64zM128 384h64v-64h-64v64zM192 384h64v-64h-64v64zM320 384h64v-64h-64v64zM384 384h64v-64h-64v64zM448 384h64v-64h-64v64zM512 384h64v-64h-64v64zM576 384h64v-64h-64v64zM640 384h64v-64h-64v64zM704 384h64v-64h-64v64zM768 384h64v-64h-64v64zM832 384h64v-64h-64v64zM128 320h64v-64h-64v64zM192 320h64v-64h-64v64zM256 320h64v-64h-64v64zM320 320h64v-64h-64v64zM384 320h64v-64h-64v64zM448 320h64v-64h-64v64zM512 320h64v-64h-64v64zM576 320h64v-64h-64v64zM640 320h64v-64h-64v64zM704 320h64v-64h-64v64zM768 320h64v-64h-64v64zM832 320h64v-64h-64v64zM128 256h64v-64h-64v64zM192 256h64v-64h-64v64zM256 256h64v-64h-64v64zM320 256h64v-64h-64v64zM384 256h64v-64h-64v64zM448 256h64v-64h-64v64zM512 256h64v-64h-64v64zM576 256h64v-64h-64v64zM640 256h64v-64h-64v64zM704 256h64v-64h-64v64zM768 256h64v-64h-64v64zM832 256h64v-64h-64v64zM192 192h64v-64h-64v64zM256 192h64v-64h-64v64zM320 192h64v-64h-64v64zM384 192h64v-64h-64v64zM448 192h64v-64h-64v64zM512 192h64v-64h-64v64zM576 192h64v-64h-64v64zM640 192h64v-64h-64v64zM704 192h64v-64h-64v64zM768 192h64v-64h-64v64zM192 128h64v-64h-64v64zM256 128h64v-64h-64v64zM320 128h64v-64h-64v64zM384 128h64v-64h-64v64zM448 128h64v-64h-64v64zM512 128h64v-64h-64v64zM576 128h64v-64h-64v64zM640 128h64v-64h-64v64zM704 128h64v-64h-64v64zM768 128h64v-64h-64v64zM256 64h64v-64h-64v64zM320 64h64v-64h-64v64zM384 64h64v-64h-64v64zM448 64h64v-64h-64v64zM512 64h64v-64h-64v64zM576 64h64v-64h-64v64zM640 64h64v-64h-64v64zM704 64h64v-64h-64v64zM384 0h64v-64h-64v64zM448 0h64v-64h-64v64zM512 0h64v-64h-64v64zM576 0h64v-64h-64v64z" />
<glyph unicode="&#xe913;" glyph-name="calendar" d="M128 960h64v-64h-64v64zM192 960h64v-64h-64v64zM768 960h64v-64h-64v64zM832 960h64v-64h-64v64zM128 896h64v-64h-64v64zM192 896h64v-64h-64v64zM768 896h64v-64h-64v64zM832 896h64v-64h-64v64zM64 832h64v-64h-64v64zM128 832h64v-64h-64v64zM192 832h64v-64h-64v64zM256 832h64v-64h-64v64zM320 832h64v-64h-64v64zM384 832h64v-64h-64v64zM448 832h64v-64h-64v64zM512 832h64v-64h-64v64zM576 832h64v-64h-64v64zM640 832h64v-64h-64v64zM704 832h64v-64h-64v64zM768 832h64v-64h-64v64zM832 832h64v-64h-64v64zM896 832h64v-64h-64v64zM0 768h64v-64h-64v64zM64 768h64v-64h-64v64zM128 768h64v-64h-64v64zM192 768h64v-64h-64v64zM256 768h64v-64h-64v64zM320 768h64v-64h-64v64zM384 768h64v-64h-64v64zM448 768h64v-64h-64v64zM512 768h64v-64h-64v64zM576 768h64v-64h-64v64zM640 768h64v-64h-64v64zM704 768h64v-64h-64v64zM768 768h64v-64h-64v64zM832 768h64v-64h-64v64zM896 768h64v-64h-64v64zM960 768h64v-64h-64v64zM0 704h64v-64h-64v64zM64 704h64v-64h-64v64zM128 704h64v-64h-64v64zM192 704h64v-64h-64v64zM256 704h64v-64h-64v64zM320 704h64v-64h-64v64zM384 704h64v-64h-64v64zM448 704h64v-64h-64v64zM512 704h64v-64h-64v64zM576 704h64v-64h-64v64zM640 704h64v-64h-64v64zM704 704h64v-64h-64v64zM768 704h64v-64h-64v64zM832 704h64v-64h-64v64zM896 704h64v-64h-64v64zM960 704h64v-64h-64v64zM0 640h64v-64h-64v64zM64 640h64v-64h-64v64zM128 640h64v-64h-64v64zM192 640h64v-64h-64v64zM256 640h64v-64h-64v64zM320 640h64v-64h-64v64zM384 640h64v-64h-64v64zM448 640h64v-64h-64v64zM512 640h64v-64h-64v64zM576 640h64v-64h-64v64zM640 640h64v-64h-64v64zM704 640h64v-64h-64v64zM768 640h64v-64h-64v64zM832 640h64v-64h-64v64zM896 640h64v-64h-64v64zM960 640h64v-64h-64v64zM0 576h64v-64h-64v64zM960 576h64v-64h-64v64zM0 512h64v-64h-64v64zM960 512h64v-64h-64v64zM0 448h64v-64h-64v64zM960 448h64v-64h-64v64zM0 384h64v-64h-64v64zM960 384h64v-64h-64v64zM0 320h64v-64h-64v64zM960 320h64v-64h-64v64zM0 256h64v-64h-64v64zM960 256h64v-64h-64v64zM0 192h64v-64h-64v64zM960 192h64v-64h-64v64zM0 128h64v-64h-64v64zM960 128h64v-64h-64v64zM0 64h64v-64h-64v64zM960 64h64v-64h-64v64zM64 0h64v-64h-64v64zM128 0h64v-64h-64v64zM192 0h64v-64h-64v64zM256 0h64v-64h-64v64zM320 0h64v-64h-64v64zM384 0h64v-64h-64v64zM448 0h64v-64h-64v64zM512 0h64v-64h-64v64zM576 0h64v-64h-64v64zM640 0h64v-64h-64v64zM704 0h64v-64h-64v64zM768 0h64v-64h-64v64zM832 0h64v-64h-64v64zM896 0h64v-64h-64v64z" />
<glyph unicode="&#xe914;" glyph-name="caret-down" d="M128 640h64v-64h-64v64zM192 640h64v-64h-64v64zM256 640h64v-64h-64v64zM320 640h64v-64h-64v64zM384 640h64v-64h-64v64zM448 640h64v-64h-64v64zM512 640h64v-64h-64v64zM576 640h64v-64h-64v64zM640 640h64v-64h-64v64zM704 640h64v-64h-64v64zM768 640h64v-64h-64v64zM832 640h64v-64h-64v64zM192 576h64v-64h-64v64zM256 576h64v-64h-64v64zM320 576h64v-64h-64v64zM384 576h64v-64h-64v64zM448 576h64v-64h-64v64zM512 576h64v-64h-64v64zM576 576h64v-64h-64v64zM640 576h64v-64h-64v64zM704 576h64v-64h-64v64zM768 576h64v-64h-64v64zM256 512h64v-64h-64v64zM320 512h64v-64h-64v64zM384 512h64v-64h-64v64zM448 512h64v-64h-64v64zM512 512h64v-64h-64v64zM576 512h64v-64h-64v64zM640 512h64v-64h-64v64zM704 512h64v-64h-64v64zM320 448h64v-64h-64v64zM384 448h64v-64h-64v64zM448 448h64v-64h-64v64zM512 448h64v-64h-64v64zM576 448h64v-64h-64v64zM640 448h64v-64h-64v64zM384 384h64v-64h-64v64zM448 384h64v-64h-64v64zM512 384h64v-64h-64v64zM576 384h64v-64h-64v64zM448 320h64v-64h-64v64zM512 320h64v-64h-64v64z" />
<glyph unicode="&#xe915;" glyph-name="caret-left" d="M640 832h64v-64h-64v64zM576 768h64v-64h-64v64zM640 768h64v-64h-64v64zM512 704h64v-64h-64v64zM576 704h64v-64h-64v64zM640 704h64v-64h-64v64zM448 640h64v-64h-64v64zM512 640h64v-64h-64v64zM576 640h64v-64h-64v64zM640 640h64v-64h-64v64zM384 576h64v-64h-64v64zM448 576h64v-64h-64v64zM512 576h64v-64h-64v64zM576 576h64v-64h-64v64zM640 576h64v-64h-64v64zM320 512h64v-64h-64v64zM384 512h64v-64h-64v64zM448 512h64v-64h-64v64zM512 512h64v-64h-64v64zM576 512h64v-64h-64v64zM640 512h64v-64h-64v64zM320 448h64v-64h-64v64zM384 448h64v-64h-64v64zM448 448h64v-64h-64v64zM512 448h64v-64h-64v64zM576 448h64v-64h-64v64zM640 448h64v-64h-64v64zM384 384h64v-64h-64v64zM448 384h64v-64h-64v64zM512 384h64v-64h-64v64zM576 384h64v-64h-64v64zM640 384h64v-64h-64v64zM448 320h64v-64h-64v64zM512 320h64v-64h-64v64zM576 320h64v-64h-64v64zM640 320h64v-64h-64v64zM512 256h64v-64h-64v64zM576 256h64v-64h-64v64zM640 256h64v-64h-64v64zM576 192h64v-64h-64v64zM640 192h64v-64h-64v64zM640 128h64v-64h-64v64z" />
<glyph unicode="&#xe916;" glyph-name="caret-right" d="M320 832h64v-64h-64v64zM320 768h64v-64h-64v64zM384 768h64v-64h-64v64zM320 704h64v-64h-64v64zM384 704h64v-64h-64v64zM448 704h64v-64h-64v64zM320 640h64v-64h-64v64zM384 640h64v-64h-64v64zM448 640h64v-64h-64v64zM512 640h64v-64h-64v64zM320 576h64v-64h-64v64zM384 576h64v-64h-64v64zM448 576h64v-64h-64v64zM512 576h64v-64h-64v64zM576 576h64v-64h-64v64zM320 512h64v-64h-64v64zM384 512h64v-64h-64v64zM448 512h64v-64h-64v64zM512 512h64v-64h-64v64zM576 512h64v-64h-64v64zM640 512h64v-64h-64v64zM320 448h64v-64h-64v64zM384 448h64v-64h-64v64zM448 448h64v-64h-64v64zM512 448h64v-64h-64v64zM576 448h64v-64h-64v64zM640 448h64v-64h-64v64zM320 384h64v-64h-64v64zM384 384h64v-64h-64v64zM448 384h64v-64h-64v64zM512 384h64v-64h-64v64zM576 384h64v-64h-64v64zM320 320h64v-64h-64v64zM384 320h64v-64h-64v64zM448 320h64v-64h-64v64zM512 320h64v-64h-64v64zM320 256h64v-64h-64v64zM384 256h64v-64h-64v64zM448 256h64v-64h-64v64zM320 192h64v-64h-64v64zM384 192h64v-64h-64v64zM320 128h64v-64h-64v64z" />
<glyph unicode="&#xe917;" glyph-name="caret-up" d="M448 640h64v-64h-64v64zM512 640h64v-64h-64v64zM384 576h64v-64h-64v64zM448 576h64v-64h-64v64zM512 576h64v-64h-64v64zM576 576h64v-64h-64v64zM320 512h64v-64h-64v64zM384 512h64v-64h-64v64zM448 512h64v-64h-64v64zM512 512h64v-64h-64v64zM576 512h64v-64h-64v64zM640 512h64v-64h-64v64zM256 448h64v-64h-64v64zM320 448h64v-64h-64v64zM384 448h64v-64h-64v64zM448 448h64v-64h-64v64zM512 448h64v-64h-64v64zM576 448h64v-64h-64v64zM640 448h64v-64h-64v64zM704 448h64v-64h-64v64zM192 384h64v-64h-64v64zM256 384h64v-64h-64v64zM320 384h64v-64h-64v64zM384 384h64v-64h-64v64zM448 384h64v-64h-64v64zM512 384h64v-64h-64v64zM576 384h64v-64h-64v64zM640 384h64v-64h-64v64zM704 384h64v-64h-64v64zM768 384h64v-64h-64v64zM128 320h64v-64h-64v64zM192 320h64v-64h-64v64zM256 320h64v-64h-64v64zM320 320h64v-64h-64v64zM384 320h64v-64h-64v64zM448 320h64v-64h-64v64zM512 320h64v-64h-64v64zM576 320h64v-64h-64v64zM640 320h64v-64h-64v64zM704 320h64v-64h-64v64zM768 320h64v-64h-64v64zM832 320h64v-64h-64v64z" />
<glyph unicode="&#xe918;" glyph-name="check" d="M832 768h64v-64h-64v64zM896 768h64v-64h-64v64zM768 704h64v-64h-64v64zM832 704h64v-64h-64v64zM896 704h64v-64h-64v64zM704 640h64v-64h-64v64zM768 640h64v-64h-64v64zM832 640h64v-64h-64v64zM640 576h64v-64h-64v64zM704 576h64v-64h-64v64zM768 576h64v-64h-64v64zM576 512h64v-64h-64v64zM640 512h64v-64h-64v64zM704 512h64v-64h-64v64zM0 448h64v-64h-64v64zM64 448h64v-64h-64v64zM512 448h64v-64h-64v64zM576 448h64v-64h-64v64zM640 448h64v-64h-64v64zM0 384h64v-64h-64v64zM64 384h64v-64h-64v64zM128 384h64v-64h-64v64zM448 384h64v-64h-64v64zM512 384h64v-64h-64v64zM576 384h64v-64h-64v64zM64 320h64v-64h-64v64zM128 320h64v-64h-64v64zM192 320h64v-64h-64v64zM384 320h64v-64h-64v64zM448 320h64v-64h-64v64zM512 320h64v-64h-64v64zM128 256h64v-64h-64v64zM192 256h64v-64h-64v64zM256 256h64v-64h-64v64zM320 256h64v-64h-64v64zM384 256h64v-64h-64v64zM448 256h64v-64h-64v64zM192 192h64v-64h-64v64zM256 192h64v-64h-64v64zM320 192h64v-64h-64v64zM384 192h64v-64h-64v64zM256 128h64v-64h-64v64zM320 128h64v-64h-64v64z" />
<glyph unicode="&#xe919;" glyph-name="check-circle" d="M320 960h64v-64h-64v64zM384 960h64v-64h-64v64zM448 960h64v-64h-64v64zM512 960h64v-64h-64v64zM576 960h64v-64h-64v64zM640 960h64v-64h-64v64zM192 896h64v-64h-64v64zM256 896h64v-64h-64v64zM704 896h64v-64h-64v64zM768 896h64v-64h-64v64zM128 832h64v-64h-64v64zM832 832h64v-64h-64v64zM64 768h64v-64h-64v64zM896 768h64v-64h-64v64zM64 704h64v-64h-64v64zM768 704h64v-64h-64v64zM896 704h64v-64h-64v64zM0 640h64v-64h-64v64zM704 640h64v-64h-64v64zM768 640h64v-64h-64v64zM960 640h64v-64h-64v64zM0 576h64v-64h-64v64zM640 576h64v-64h-64v64zM704 576h64v-64h-64v64zM960 576h64v-64h-64v64zM0 512h64v-64h-64v64zM192 512h64v-64h-64v64zM576 512h64v-64h-64v64zM640 512h64v-64h-64v64zM960 512h64v-64h-64v64zM0 448h64v-64h-64v64zM192 448h64v-64h-64v64zM256 448h64v-64h-64v64zM512 448h64v-64h-64v64zM576 448h64v-64h-64v64zM960 448h64v-64h-64v64zM0 384h64v-64h-64v64zM256 384h64v-64h-64v64zM320 384h64v-64h-64v64zM448 384h64v-64h-64v64zM512 384h64v-64h-64v64zM960 384h64v-64h-64v64zM0 320h64v-64h-64v64zM320 320h64v-64h-64v64zM384 320h64v-64h-64v64zM448 320h64v-64h-64v64zM960 320h64v-64h-64v64zM64 256h64v-64h-64v64zM384 256h64v-64h-64v64zM896 256h64v-64h-64v64zM64 192h64v-64h-64v64zM896 192h64v-64h-64v64zM128 128h64v-64h-64v64zM832 128h64v-64h-64v64zM192 64h64v-64h-64v64zM256 64h64v-64h-64v64zM704 64h64v-64h-64v64zM768 64h64v-64h-64v64zM320 0h64v-64h-64v64zM384 0h64v-64h-64v64zM448 0h64v-64h-64v64zM512 0h64v-64h-64v64zM576 0h64v-64h-64v64zM640 0h64v-64h-64v64z" />
<glyph unicode="&#xe91a;" glyph-name="check-square" d="M64 960h64v-64h-64v64zM128 960h64v-64h-64v64zM192 960h64v-64h-64v64zM256 960h64v-64h-64v64zM320 960h64v-64h-64v64zM384 960h64v-64h-64v64zM448 960h64v-64h-64v64zM512 960h64v-64h-64v64zM576 960h64v-64h-64v64zM640 960h64v-64h-64v64zM704 960h64v-64h-64v64zM768 960h64v-64h-64v64zM832 960h64v-64h-64v64zM896 960h64v-64h-64v64zM0 896h64v-64h-64v64zM960 896h64v-64h-64v64zM0 832h64v-64h-64v64zM960 832h64v-64h-64v64zM0 768h64v-64h-64v64zM960 768h64v-64h-64v64zM0 704h64v-64h-64v64zM768 704h64v-64h-64v64zM960 704h64v-64h-64v64zM0 640h64v-64h-64v64zM704 640h64v-64h-64v64zM768 640h64v-64h-64v64zM960 640h64v-64h-64v64zM0 576h64v-64h-64v64zM640 576h64v-64h-64v64zM704 576h64v-64h-64v64zM960 576h64v-64h-64v64zM0 512h64v-64h-64v64zM192 512h64v-64h-64v64zM576 512h64v-64h-64v64zM640 512h64v-64h-64v64zM960 512h64v-64h-64v64zM0 448h64v-64h-64v64zM192 448h64v-64h-64v64zM256 448h64v-64h-64v64zM512 448h64v-64h-64v64zM576 448h64v-64h-64v64zM960 448h64v-64h-64v64zM0 384h64v-64h-64v64zM256 384h64v-64h-64v64zM320 384h64v-64h-64v64zM448 384h64v-64h-64v64zM512 384h64v-64h-64v64zM960 384h64v-64h-64v64zM0 320h64v-64h-64v64zM320 320h64v-64h-64v64zM384 320h64v-64h-64v64zM448 320h64v-64h-64v64zM960 320h64v-64h-64v64zM0 256h64v-64h-64v64zM384 256h64v-64h-64v64zM960 256h64v-64h-64v64zM0 192h64v-64h-64v64zM960 192h64v-64h-64v64zM0 128h64v-64h-64v64zM960 128h64v-64h-64v64zM0 64h64v-64h-64v64zM960 64h64v-64h-64v64zM64 0h64v-64h-64v64zM128 0h64v-64h-64v64zM192 0h64v-64h-64v64zM256 0h64v-64h-64v64zM320 0h64v-64h-64v64zM384 0h64v-64h-64v64zM448 0h64v-64h-64v64zM512 0h64v-64h-64v64zM576 0h64v-64h-64v64zM640 0h64v-64h-64v64zM704 0h64v-64h-64v64zM768 0h64v-64h-64v64zM832 0h64v-64h-64v64zM896 0h64v-64h-64v64z" />
<glyph unicode="&#xe91b;" glyph-name="circle" d="M320 960h64v-64h-64v64zM384 960h64v-64h-64v64zM448 960h64v-64h-64v64zM512 960h64v-64h-64v64zM576 960h64v-64h-64v64zM640 960h64v-64h-64v64zM192 896h64v-64h-64v64zM256 896h64v-64h-64v64zM704 896h64v-64h-64v64zM768 896h64v-64h-64v64zM128 832h64v-64h-64v64zM832 832h64v-64h-64v64zM64 768h64v-64h-64v64zM896 768h64v-64h-64v64zM64 704h64v-64h-64v64zM896 704h64v-64h-64v64zM0 640h64v-64h-64v64zM960 640h64v-64h-64v64zM0 576h64v-64h-64v64zM960 576h64v-64h-64v64zM0 512h64v-64h-64v64zM960 512h64v-64h-64v64zM0 448h64v-64h-64v64zM960 448h64v-64h-64v64zM0 384h64v-64h-64v64zM960 384h64v-64h-64v64zM0 320h64v-64h-64v64zM960 320h64v-64h-64v64zM64 256h64v-64h-64v64zM896 256h64v-64h-64v64zM64 192h64v-64h-64v64zM896 192h64v-64h-64v64zM128 128h64v-64h-64v64zM832 128h64v-64h-64v64zM192 64h64v-64h-64v64zM256 64h64v-64h-64v64zM704 64h64v-64h-64v64zM768 64h64v-64h-64v64zM320 0h64v-64h-64v64zM384 0h64v-64h-64v64zM448 0h64v-64h-64v64zM512 0h64v-64h-64v64zM576 0h64v-64h-64v64zM640 0h64v-64h-64v64z" />
<glyph unicode="&#xe91c;" glyph-name="cloud" d="M448 768h64v-64h-64v64zM512 768h64v-64h-64v64zM576 768h64v-64h-64v64zM640 768h64v-64h-64v64zM384 704h64v-64h-64v64zM704 704h64v-64h-64v64zM192 640h64v-64h-64v64zM256 640h64v-64h-64v64zM320 640h64v-64h-64v64zM768 640h64v-64h-64v64zM128 576h64v-64h-64v64zM384 576h64v-64h-64v64zM768 576h64v-64h-64v64zM64 512h64v-64h-64v64zM448 512h64v-64h-64v64zM768 512h64v-64h-64v64zM832 512h64v-64h-64v64zM64 448h64v-64h-64v64zM704 448h64v-64h-64v64zM896 448h64v-64h-64v64zM0 384h64v-64h-64v64zM960 384h64v-64h-64v64zM0 320h64v-64h-64v64zM960 320h64v-64h-64v64zM0 256h64v-64h-64v64zM960 256h64v-64h-64v64zM64 192h64v-64h-64v64zM128 192h64v-64h-64v64zM192 192h64v-64h-64v64zM256 192h64v-64h-64v64zM320 192h64v-64h-64v64zM384 192h64v-64h-64v64zM448 192h64v-64h-64v64zM512 192h64v-64h-64v64zM576 192h64v-64h-64v64zM640 192h64v-64h-64v64zM704 192h64v-64h-64v64zM768 192h64v-64h-64v64zM832 192h64v-64h-64v64zM896 192h64v-64h-64v64z" />
<glyph unicode="&#xe91d;" glyph-name="cog" d="M448 960h64v-64h-64v64zM512 960h64v-64h-64v64zM128 896h64v-64h-64v64zM448 896h64v-64h-64v64zM512 896h64v-64h-64v64zM832 896h64v-64h-64v64zM64 832h64v-64h-64v64zM128 832h64v-64h-64v64zM192 832h64v-64h-64v64zM320 832h64v-64h-64v64zM384 832h64v-64h-64v64zM448 832h64v-64h-64v64zM512 832h64v-64h-64v64zM576 832h64v-64h-64v64zM640 832h64v-64h-64v64zM768 832h64v-64h-64v64zM832 832h64v-64h-64v64zM896 832h64v-64h-64v64zM128 768h64v-64h-64v64zM192 768h64v-64h-64v64zM256 768h64v-64h-64v64zM320 768h64v-64h-64v64zM384 768h64v-64h-64v64zM448 768h64v-64h-64v64zM512 768h64v-64h-64v64zM576 768h64v-64h-64v64zM640 768h64v-64h-64v64zM704 768h64v-64h-64v64zM768 768h64v-64h-64v64zM832 768h64v-64h-64v64zM192 704h64v-64h-64v64zM256 704h64v-64h-64v64zM704 704h64v-64h-64v64zM768 704h64v-64h-64v64zM128 640h64v-64h-64v64zM192 640h64v-64h-64v64zM768 640h64v-64h-64v64zM832 640h64v-64h-64v64zM128 576h64v-64h-64v64zM192 576h64v-64h-64v64zM768 576h64v-64h-64v64zM832 576h64v-64h-64v64zM0 512h64v-64h-64v64zM64 512h64v-64h-64v64zM128 512h64v-64h-64v64zM192 512h64v-64h-64v64zM768 512h64v-64h-64v64zM832 512h64v-64h-64v64zM896 512h64v-64h-64v64zM960 512h64v-64h-64v64zM0 448h64v-64h-64v64zM64 448h64v-64h-64v64zM128 448h64v-64h-64v64zM192 448h64v-64h-64v64zM768 448h64v-64h-64v64zM832 448h64v-64h-64v64zM896 448h64v-64h-64v64zM960 448h64v-64h-64v64zM128 384h64v-64h-64v64zM192 384h64v-64h-64v64zM768 384h64v-64h-64v64zM832 384h64v-64h-64v64zM128 320h64v-64h-64v64zM192 320h64v-64h-64v64zM768 320h64v-64h-64v64zM832 320h64v-64h-64v64zM192 256h64v-64h-64v64zM256 256h64v-64h-64v64zM704 256h64v-64h-64v64zM768 256h64v-64h-64v64zM128 192h64v-64h-64v64zM192 192h64v-64h-64v64zM256 192h64v-64h-64v64zM320 192h64v-64h-64v64zM384 192h64v-64h-64v64zM448 192h64v-64h-64v64zM512 192h64v-64h-64v64zM576 192h64v-64h-64v64zM640 192h64v-64h-64v64zM704 192h64v-64h-64v64zM768 192h64v-64h-64v64zM832 192h64v-64h-64v64zM64 128h64v-64h-64v64zM128 128h64v-64h-64v64zM192 128h64v-64h-64v64zM320 128h64v-64h-64v64zM384 128h64v-64h-64v64zM448 128h64v-64h-64v64zM512 128h64v-64h-64v64zM576 128h64v-64h-64v64zM640 128h64v-64h-64v64zM768 128h64v-64h-64v64zM832 128h64v-64h-64v64zM896 128h64v-64h-64v64zM128 64h64v-64h-64v64zM448 64h64v-64h-64v64zM512 64h64v-64h-64v64zM832 64h64v-64h-64v64zM448 0h64v-64h-64v64zM512 0h64v-64h-64v64z" />
<glyph unicode="&#xe91e;" glyph-name="comment" d="M256 768h64v-64h-64v64zM320 768h64v-64h-64v64zM384 768h64v-64h-64v64zM448 768h64v-64h-64v64zM512 768h64v-64h-64v64zM576 768h64v-64h-64v64zM640 768h64v-64h-64v64zM704 768h64v-64h-64v64zM128 704h64v-64h-64v64zM192 704h64v-64h-64v64zM256 704h64v-64h-64v64zM320 704h64v-64h-64v64zM384 704h64v-64h-64v64zM448 704h64v-64h-64v64zM512 704h64v-64h-64v64zM576 704h64v-64h-64v64zM640 704h64v-64h-64v64zM704 704h64v-64h-64v64zM768 704h64v-64h-64v64zM832 704h64v-64h-64v64zM64 640h64v-64h-64v64zM128 640h64v-64h-64v64zM192 640h64v-64h-64v64zM256 640h64v-64h-64v64zM320 640h64v-64h-64v64zM384 640h64v-64h-64v64zM448 640h64v-64h-64v64zM512 640h64v-64h-64v64zM576 640h64v-64h-64v64zM640 640h64v-64h-64v64zM704 640h64v-64h-64v64zM768 640h64v-64h-64v64zM832 640h64v-64h-64v64zM896 640h64v-64h-64v64zM0 576h64v-64h-64v64zM64 576h64v-64h-64v64zM128 576h64v-64h-64v64zM192 576h64v-64h-64v64zM256 576h64v-64h-64v64zM320 576h64v-64h-64v64zM384 576h64v-64h-64v64zM448 576h64v-64h-64v64zM512 576h64v-64h-64v64zM576 576h64v-64h-64v64zM640 576h64v-64h-64v64zM704 576h64v-64h-64v64zM768 576h64v-64h-64v64zM832 576h64v-64h-64v64zM896 576h64v-64h-64v64zM960 576h64v-64h-64v64zM0 512h64v-64h-64v64zM64 512h64v-64h-64v64zM128 512h64v-64h-64v64zM192 512h64v-64h-64v64zM256 512h64v-64h-64v64zM320 512h64v-64h-64v64zM384 512h64v-64h-64v64zM448 512h64v-64h-64v64zM512 512h64v-64h-64v64zM576 512h64v-64h-64v64zM640 512h64v-64h-64v64zM704 512h64v-64h-64v64zM768 512h64v-64h-64v64zM832 512h64v-64h-64v64zM896 512h64v-64h-64v64zM960 512h64v-64h-64v64zM0 448h64v-64h-64v64zM64 448h64v-64h-64v64zM128 448h64v-64h-64v64zM192 448h64v-64h-64v64zM256 448h64v-64h-64v64zM320 448h64v-64h-64v64zM384 448h64v-64h-64v64zM448 448h64v-64h-64v64zM512 448h64v-64h-64v64zM576 448h64v-64h-64v64zM640 448h64v-64h-64v64zM704 448h64v-64h-64v64zM768 448h64v-64h-64v64zM832 448h64v-64h-64v64zM896 448h64v-64h-64v64zM960 448h64v-64h-64v64zM0 384h64v-64h-64v64zM64 384h64v-64h-64v64zM128 384h64v-64h-64v64zM192 384h64v-64h-64v64zM256 384h64v-64h-64v64zM320 384h64v-64h-64v64zM384 384h64v-64h-64v64zM448 384h64v-64h-64v64zM512 384h64v-64h-64v64zM576 384h64v-64h-64v64zM640 384h64v-64h-64v64zM704 384h64v-64h-64v64zM768 384h64v-64h-64v64zM832 384h64v-64h-64v64zM896 384h64v-64h-64v64zM960 384h64v-64h-64v64zM64 320h64v-64h-64v64zM128 320h64v-64h-64v64zM192 320h64v-64h-64v64zM256 320h64v-64h-64v64zM320 320h64v-64h-64v64zM384 320h64v-64h-64v64zM448 320h64v-64h-64v64zM512 320h64v-64h-64v64zM576 320h64v-64h-64v64zM640 320h64v-64h-64v64zM704 320h64v-64h-64v64zM768 320h64v-64h-64v64zM832 320h64v-64h-64v64zM896 320h64v-64h-64v64zM128 256h64v-64h-64v64zM192 256h64v-64h-64v64zM256 256h64v-64h-64v64zM320 256h64v-64h-64v64zM384 256h64v-64h-64v64zM448 256h64v-64h-64v64zM512 256h64v-64h-64v64zM576 256h64v-64h-64v64zM640 256h64v-64h-64v64zM704 256h64v-64h-64v64zM768 256h64v-64h-64v64zM832 256h64v-64h-64v64zM192 192h64v-64h-64v64zM256 192h64v-64h-64v64zM320 192h64v-64h-64v64zM384 192h64v-64h-64v64zM448 192h64v-64h-64v64zM512 192h64v-64h-64v64zM576 192h64v-64h-64v64zM640 192h64v-64h-64v64zM704 192h64v-64h-64v64zM128 128h64v-64h-64v64zM192 128h64v-64h-64v64zM256 128h64v-64h-64v64zM320 128h64v-64h-64v64zM64 64h64v-64h-64v64zM128 64h64v-64h-64v64zM192 64h64v-64h-64v64z" />
<glyph unicode="&#xe91f;" glyph-name="database" d="M192 896h64v-64h-64v64zM256 896h64v-64h-64v64zM320 896h64v-64h-64v64zM384 896h64v-64h-64v64zM448 896h64v-64h-64v64zM512 896h64v-64h-64v64zM576 896h64v-64h-64v64zM640 896h64v-64h-64v64zM704 896h64v-64h-64v64zM768 896h64v-64h-64v64zM128 832h64v-64h-64v64zM192 832h64v-64h-64v64zM256 832h64v-64h-64v64zM320 832h64v-64h-64v64zM384 832h64v-64h-64v64zM448 832h64v-64h-64v64zM512 832h64v-64h-64v64zM576 832h64v-64h-64v64zM640 832h64v-64h-64v64zM704 832h64v-64h-64v64zM768 832h64v-64h-64v64zM832 832h64v-64h-64v64zM64 768h64v-64h-64v64zM128 768h64v-64h-64v64zM192 768h64v-64h-64v64zM256 768h64v-64h-64v64zM320 768h64v-64h-64v64zM384 768h64v-64h-64v64zM448 768h64v-64h-64v64zM512 768h64v-64h-64v64zM576 768h64v-64h-64v64zM640 768h64v-64h-64v64zM704 768h64v-64h-64v64zM768 768h64v-64h-64v64zM832 768h64v-64h-64v64zM896 768h64v-64h-64v64zM64 704h64v-64h-64v64zM128 704h64v-64h-64v64zM192 704h64v-64h-64v64zM256 704h64v-64h-64v64zM320 704h64v-64h-64v64zM384 704h64v-64h-64v64zM448 704h64v-64h-64v64zM512 704h64v-64h-64v64zM576 704h64v-64h-64v64zM640 704h64v-64h-64v64zM704 704h64v-64h-64v64zM768 704h64v-64h-64v64zM832 704h64v-64h-64v64zM896 704h64v-64h-64v64zM128 640h64v-64h-64v64zM192 640h64v-64h-64v64zM256 640h64v-64h-64v64zM320 640h64v-64h-64v64zM384 640h64v-64h-64v64zM448 640h64v-64h-64v64zM512 640h64v-64h-64v64zM576 640h64v-64h-64v64zM640 640h64v-64h-64v64zM704 640h64v-64h-64v64zM768 640h64v-64h-64v64zM832 640h64v-64h-64v64zM64 576h64v-64h-64v64zM192 576h64v-64h-64v64zM256 576h64v-64h-64v64zM320 576h64v-64h-64v64zM384 576h64v-64h-64v64zM448 576h64v-64h-64v64zM512 576h64v-64h-64v64zM576 576h64v-64h-64v64zM640 576h64v-64h-64v64zM704 576h64v-64h-64v64zM768 576h64v-64h-64v64zM896 576h64v-64h-64v64zM64 512h64v-64h-64v64zM128 512h64v-64h-64v64zM832 512h64v-64h-64v64zM896 512h64v-64h-64v64zM64 448h64v-64h-64v64zM128 448h64v-64h-64v64zM192 448h64v-64h-64v64zM256 448h64v-64h-64v64zM320 448h64v-64h-64v64zM384 448h64v-64h-64v64zM448 448h64v-64h-64v64zM512 448h64v-64h-64v64zM576 448h64v-64h-64v64zM640 448h64v-64h-64v64zM704 448h64v-64h-64v64zM768 448h64v-64h-64v64zM832 448h64v-64h-64v64zM896 448h64v-64h-64v64zM128 384h64v-64h-64v64zM192 384h64v-64h-64v64zM256 384h64v-64h-64v64zM320 384h64v-64h-64v64zM384 384h64v-64h-64v64zM448 384h64v-64h-64v64zM512 384h64v-64h-64v64zM576 384h64v-64h-64v64zM640 384h64v-64h-64v64zM704 384h64v-64h-64v64zM768 384h64v-64h-64v64zM832 384h64v-64h-64v64zM64 320h64v-64h-64v64zM192 320h64v-64h-64v64zM256 320h64v-64h-64v64zM320 320h64v-64h-64v64zM384 320h64v-64h-64v64zM448 320h64v-64h-64v64zM512 320h64v-64h-64v64zM576 320h64v-64h-64v64zM640 320h64v-64h-64v64zM704 320h64v-64h-64v64zM768 320h64v-64h-64v64zM896 320h64v-64h-64v64zM64 256h64v-64h-64v64zM128 256h64v-64h-64v64zM832 256h64v-64h-64v64zM896 256h64v-64h-64v64zM64 192h64v-64h-64v64zM128 192h64v-64h-64v64zM192 192h64v-64h-64v64zM256 192h64v-64h-64v64zM320 192h64v-64h-64v64zM384 192h64v-64h-64v64zM448 192h64v-64h-64v64zM512 192h64v-64h-64v64zM576 192h64v-64h-64v64zM640 192h64v-64h-64v64zM704 192h64v-64h-64v64zM768 192h64v-64h-64v64zM832 192h64v-64h-64v64zM896 192h64v-64h-64v64zM128 128h64v-64h-64v64zM192 128h64v-64h-64v64zM256 128h64v-64h-64v64zM320 128h64v-64h-64v64zM384 128h64v-64h-64v64zM448 128h64v-64h-64v64zM512 128h64v-64h-64v64zM576 128h64v-64h-64v64zM640 128h64v-64h-64v64zM704 128h64v-64h-64v64zM768 128h64v-64h-64v64zM832 128h64v-64h-64v64zM192 64h64v-64h-64v64zM256 64h64v-64h-64v64zM320 64h64v-64h-64v64zM384 64h64v-64h-64v64zM448 64h64v-64h-64v64zM512 64h64v-64h-64v64zM576 64h64v-64h-64v64zM640 64h64v-64h-64v64zM704 64h64v-64h-64v64zM768 64h64v-64h-64v64z" />
<glyph unicode="&#xe920;" glyph-name="discord" d="M64 960h64v-64h-64v64zM128 960h64v-64h-64v64zM192 960h64v-64h-64v64zM256 960h64v-64h-64v64zM320 960h64v-64h-64v64zM384 960h64v-64h-64v64zM448 960h64v-64h-64v64zM512 960h64v-64h-64v64zM576 960h64v-64h-64v64zM640 960h64v-64h-64v64zM704 960h64v-64h-64v64zM768 960h64v-64h-64v64zM832 960h64v-64h-64v64zM896 960h64v-64h-64v64zM0 896h64v-64h-64v64zM64 896h64v-64h-64v64zM128 896h64v-64h-64v64zM192 896h64v-64h-64v64zM256 896h64v-64h-64v64zM320 896h64v-64h-64v64zM384 896h64v-64h-64v64zM448 896h64v-64h-64v64zM512 896h64v-64h-64v64zM576 896h64v-64h-64v64zM640 896h64v-64h-64v64zM704 896h64v-64h-64v64zM768 896h64v-64h-64v64zM832 896h64v-64h-64v64zM896 896h64v-64h-64v64zM960 896h64v-64h-64v64zM0 832h64v-64h-64v64zM64 832h64v-64h-64v64zM128 832h64v-64h-64v64zM192 832h64v-64h-64v64zM256 832h64v-64h-64v64zM320 832h64v-64h-64v64zM384 832h64v-64h-64v64zM448 832h64v-64h-64v64zM512 832h64v-64h-64v64zM576 832h64v-64h-64v64zM640 832h64v-64h-64v64zM704 832h64v-64h-64v64zM768 832h64v-64h-64v64zM832 832h64v-64h-64v64zM896 832h64v-64h-64v64zM960 832h64v-64h-64v64zM0 768h64v-64h-64v64zM64 768h64v-64h-64v64zM128 768h64v-64h-64v64zM192 768h64v-64h-64v64zM448 768h64v-64h-64v64zM512 768h64v-64h-64v64zM768 768h64v-64h-64v64zM832 768h64v-64h-64v64zM896 768h64v-64h-64v64zM960 768h64v-64h-64v64zM0 704h64v-64h-64v64zM64 704h64v-64h-64v64zM128 704h64v-64h-64v64zM832 704h64v-64h-64v64zM896 704h64v-64h-64v64zM960 704h64v-64h-64v64zM0 640h64v-64h-64v64zM64 640h64v-64h-64v64zM128 640h64v-64h-64v64zM832 640h64v-64h-64v64zM896 640h64v-64h-64v64zM960 640h64v-64h-64v64zM0 576h64v-64h-64v64zM64 576h64v-64h-64v64zM384 576h64v-64h-64v64zM576 576h64v-64h-64v64zM896 576h64v-64h-64v64zM960 576h64v-64h-64v64zM0 512h64v-64h-64v64zM64 512h64v-64h-64v64zM384 512h64v-64h-64v64zM576 512h64v-64h-64v64zM896 512h64v-64h-64v64zM960 512h64v-64h-64v64zM0 448h64v-64h-64v64zM64 448h64v-64h-64v64zM896 448h64v-64h-64v64zM960 448h64v-64h-64v64zM0 384h64v-64h-64v64zM64 384h64v-64h-64v64zM128 384h64v-64h-64v64zM320 384h64v-64h-64v64zM640 384h64v-64h-64v64zM832 384h64v-64h-64v64zM896 384h64v-64h-64v64zM960 384h64v-64h-64v64zM0 320h64v-64h-64v64zM64 320h64v-64h-64v64zM128 320h64v-64h-64v64zM192 320h64v-64h-64v64zM384 320h64v-64h-64v64zM448 320h64v-64h-64v64zM512 320h64v-64h-64v64zM576 320h64v-64h-64v64zM768 320h64v-64h-64v64zM832 320h64v-64h-64v64zM896 320h64v-64h-64v64zM960 320h64v-64h-64v64zM0 256h64v-64h-64v64zM64 256h64v-64h-64v64zM128 256h64v-64h-64v64zM192 256h64v-64h-64v64zM256 256h64v-64h-64v64zM320 256h64v-64h-64v64zM384 256h64v-64h-64v64zM448 256h64v-64h-64v64zM512 256h64v-64h-64v64zM576 256h64v-64h-64v64zM640 256h64v-64h-64v64zM704 256h64v-64h-64v64zM768 256h64v-64h-64v64zM832 256h64v-64h-64v64zM896 256h64v-64h-64v64zM960 256h64v-64h-64v64zM0 192h64v-64h-64v64zM64 192h64v-64h-64v64zM128 192h64v-64h-64v64zM192 192h64v-64h-64v64zM256 192h64v-64h-64v64zM320 192h64v-64h-64v64zM384 192h64v-64h-64v64zM448 192h64v-64h-64v64zM512 192h64v-64h-64v64zM576 192h64v-64h-64v64zM640 192h64v-64h-64v64zM704 192h64v-64h-64v64zM768 192h64v-64h-64v64zM832 192h64v-64h-64v64zM896 192h64v-64h-64v64zM960 192h64v-64h-64v64zM64 128h64v-64h-64v64zM128 128h64v-64h-64v64zM192 128h64v-64h-64v64zM256 128h64v-64h-64v64zM320 128h64v-64h-64v64zM384 128h64v-64h-64v64zM448 128h64v-64h-64v64zM512 128h64v-64h-64v64zM576 128h64v-64h-64v64zM640 128h64v-64h-64v64zM704 128h64v-64h-64v64zM832 128h64v-64h-64v64zM896 128h64v-64h-64v64zM960 128h64v-64h-64v64zM896 64h64v-64h-64v64zM960 64h64v-64h-64v64zM960 0h64v-64h-64v64z" />
<glyph unicode="&#xe921;" glyph-name="envelope" d="M64 832h64v-64h-64v64zM128 832h64v-64h-64v64zM192 832h64v-64h-64v64zM256 832h64v-64h-64v64zM320 832h64v-64h-64v64zM384 832h64v-64h-64v64zM448 832h64v-64h-64v64zM512 832h64v-64h-64v64zM576 832h64v-64h-64v64zM640 832h64v-64h-64v64zM704 832h64v-64h-64v64zM768 832h64v-64h-64v64zM832 832h64v-64h-64v64zM896 832h64v-64h-64v64zM0 768h64v-64h-64v64zM960 768h64v-64h-64v64zM0 704h64v-64h-64v64zM64 704h64v-64h-64v64zM896 704h64v-64h-64v64zM960 704h64v-64h-64v64zM0 640h64v-64h-64v64zM128 640h64v-64h-64v64zM832 640h64v-64h-64v64zM960 640h64v-64h-64v64zM0 576h64v-64h-64v64zM192 576h64v-64h-64v64zM768 576h64v-64h-64v64zM960 576h64v-64h-64v64zM0 512h64v-64h-64v64zM256 512h64v-64h-64v64zM704 512h64v-64h-64v64zM960 512h64v-64h-64v64zM0 448h64v-64h-64v64zM320 448h64v-64h-64v64zM640 448h64v-64h-64v64zM960 448h64v-64h-64v64zM0 384h64v-64h-64v64zM384 384h64v-64h-64v64zM576 384h64v-64h-64v64zM960 384h64v-64h-64v64zM0 320h64v-64h-64v64zM448 320h64v-64h-64v64zM512 320h64v-64h-64v64zM960 320h64v-64h-64v64zM0 256h64v-64h-64v64zM960 256h64v-64h-64v64zM0 192h64v-64h-64v64zM960 192h64v-64h-64v64zM64 128h64v-64h-64v64zM128 128h64v-64h-64v64zM192 128h64v-64h-64v64zM256 128h64v-64h-64v64zM320 128h64v-64h-64v64zM384 128h64v-64h-64v64zM448 128h64v-64h-64v64zM512 128h64v-64h-64v64zM576 128h64v-64h-64v64zM640 128h64v-64h-64v64zM704 128h64v-64h-64v64zM768 128h64v-64h-64v64zM832 128h64v-64h-64v64zM896 128h64v-64h-64v64z" />
<glyph unicode="&#xe922;" glyph-name="exclamation" d="M256 896h64v-64h-64v64zM320 896h64v-64h-64v64zM384 896h64v-64h-64v64zM448 896h64v-64h-64v64zM512 896h64v-64h-64v64zM576 896h64v-64h-64v64zM640 896h64v-64h-64v64zM704 896h64v-64h-64v64zM256 832h64v-64h-64v64zM320 832h64v-64h-64v64zM384 832h64v-64h-64v64zM448 832h64v-64h-64v64zM512 832h64v-64h-64v64zM576 832h64v-64h-64v64zM640 832h64v-64h-64v64zM704 832h64v-64h-64v64zM256 768h64v-64h-64v64zM320 768h64v-64h-64v64zM384 768h64v-64h-64v64zM448 768h64v-64h-64v64zM512 768h64v-64h-64v64zM576 768h64v-64h-64v64zM640 768h64v-64h-64v64zM704 768h64v-64h-64v64zM320 704h64v-64h-64v64zM384 704h64v-64h-64v64zM448 704h64v-64h-64v64zM512 704h64v-64h-64v64zM576 704h64v-64h-64v64zM640 704h64v-64h-64v64zM320 640h64v-64h-64v64zM384 640h64v-64h-64v64zM448 640h64v-64h-64v64zM512 640h64v-64h-64v64zM576 640h64v-64h-64v64zM640 640h64v-64h-64v64zM320 576h64v-64h-64v64zM384 576h64v-64h-64v64zM448 576h64v-64h-64v64zM512 576h64v-64h-64v64zM576 576h64v-64h-64v64zM640 576h64v-64h-64v64zM384 512h64v-64h-64v64zM448 512h64v-64h-64v64zM512 512h64v-64h-64v64zM576 512h64v-64h-64v64zM384 448h64v-64h-64v64zM448 448h64v-64h-64v64zM512 448h64v-64h-64v64zM576 448h64v-64h-64v64zM384 384h64v-64h-64v64zM448 384h64v-64h-64v64zM512 384h64v-64h-64v64zM576 384h64v-64h-64v64zM448 256h64v-64h-64v64zM512 256h64v-64h-64v64zM384 192h64v-64h-64v64zM448 192h64v-64h-64v64zM512 192h64v-64h-64v64zM576 192h64v-64h-64v64zM384 128h64v-64h-64v64zM448 128h64v-64h-64v64zM512 128h64v-64h-64v64zM576 128h64v-64h-64v64zM448 64h64v-64h-64v64zM512 64h64v-64h-64v64z" />
<glyph unicode="&#xe923;" glyph-name="exclamation-circle" d="M320 960h64v-64h-64v64zM384 960h64v-64h-64v64zM448 960h64v-64h-64v64zM512 960h64v-64h-64v64zM576 960h64v-64h-64v64zM640 960h64v-64h-64v64zM192 896h64v-64h-64v64zM256 896h64v-64h-64v64zM704 896h64v-64h-64v64zM768 896h64v-64h-64v64zM128 832h64v-64h-64v64zM832 832h64v-64h-64v64zM64 768h64v-64h-64v64zM256 768h64v-64h-64v64zM320 768h64v-64h-64v64zM384 768h64v-64h-64v64zM448 768h64v-64h-64v64zM512 768h64v-64h-64v64zM576 768h64v-64h-64v64zM640 768h64v-64h-64v64zM704 768h64v-64h-64v64zM896 768h64v-64h-64v64zM64 704h64v-64h-64v64zM256 704h64v-64h-64v64zM320 704h64v-64h-64v64zM384 704h64v-64h-64v64zM448 704h64v-64h-64v64zM512 704h64v-64h-64v64zM576 704h64v-64h-64v64zM640 704h64v-64h-64v64zM704 704h64v-64h-64v64zM896 704h64v-64h-64v64zM0 640h64v-64h-64v64zM320 640h64v-64h-64v64zM384 640h64v-64h-64v64zM448 640h64v-64h-64v64zM512 640h64v-64h-64v64zM576 640h64v-64h-64v64zM640 640h64v-64h-64v64zM960 640h64v-64h-64v64zM0 576h64v-64h-64v64zM320 576h64v-64h-64v64zM384 576h64v-64h-64v64zM448 576h64v-64h-64v64zM512 576h64v-64h-64v64zM576 576h64v-64h-64v64zM640 576h64v-64h-64v64zM960 576h64v-64h-64v64zM0 512h64v-64h-64v64zM384 512h64v-64h-64v64zM448 512h64v-64h-64v64zM512 512h64v-64h-64v64zM576 512h64v-64h-64v64zM960 512h64v-64h-64v64zM0 448h64v-64h-64v64zM384 448h64v-64h-64v64zM448 448h64v-64h-64v64zM512 448h64v-64h-64v64zM576 448h64v-64h-64v64zM960 448h64v-64h-64v64zM0 384h64v-64h-64v64zM960 384h64v-64h-64v64zM0 320h64v-64h-64v64zM448 320h64v-64h-64v64zM512 320h64v-64h-64v64zM960 320h64v-64h-64v64zM64 256h64v-64h-64v64zM384 256h64v-64h-64v64zM448 256h64v-64h-64v64zM512 256h64v-64h-64v64zM576 256h64v-64h-64v64zM896 256h64v-64h-64v64zM64 192h64v-64h-64v64zM384 192h64v-64h-64v64zM448 192h64v-64h-64v64zM512 192h64v-64h-64v64zM576 192h64v-64h-64v64zM896 192h64v-64h-64v64zM128 128h64v-64h-64v64zM448 128h64v-64h-64v64zM512 128h64v-64h-64v64zM832 128h64v-64h-64v64zM192 64h64v-64h-64v64zM256 64h64v-64h-64v64zM704 64h64v-64h-64v64zM768 64h64v-64h-64v64zM320 0h64v-64h-64v64zM384 0h64v-64h-64v64zM448 0h64v-64h-64v64zM512 0h64v-64h-64v64zM576 0h64v-64h-64v64zM640 0h64v-64h-64v64z" />
<glyph unicode="&#xe924;" glyph-name="exclamation-triangle" d="M448 960h64v-64h-64v64zM512 960h64v-64h-64v64zM384 896h64v-64h-64v64zM576 896h64v-64h-64v64zM256 768h64v-64h-64v64zM320 768h64v-64h-64v64zM384 768h64v-64h-64v64zM448 768h64v-64h-64v64zM512 768h64v-64h-64v64zM576 768h64v-64h-64v64zM640 768h64v-64h-64v64zM704 768h64v-64h-64v64zM256 704h64v-64h-64v64zM320 704h64v-64h-64v64zM384 704h64v-64h-64v64zM448 704h64v-64h-64v64zM512 704h64v-64h-64v64zM576 704h64v-64h-64v64zM640 704h64v-64h-64v64zM704 704h64v-64h-64v64zM320 640h64v-64h-64v64zM384 640h64v-64h-64v64zM448 640h64v-64h-64v64zM512 640h64v-64h-64v64zM576 640h64v-64h-64v64zM640 640h64v-64h-64v64zM320 576h64v-64h-64v64zM384 576h64v-64h-64v64zM448 576h64v-64h-64v64zM512 576h64v-64h-64v64zM576 576h64v-64h-64v64zM640 576h64v-64h-64v64zM192 512h64v-64h-64v64zM384 512h64v-64h-64v64zM448 512h64v-64h-64v64zM512 512h64v-64h-64v64zM576 512h64v-64h-64v64zM768 512h64v-64h-64v64zM192 448h64v-64h-64v64zM384 448h64v-64h-64v64zM448 448h64v-64h-64v64zM512 448h64v-64h-64v64zM576 448h64v-64h-64v64zM768 448h64v-64h-64v64zM128 384h64v-64h-64v64zM832 384h64v-64h-64v64zM128 320h64v-64h-64v64zM448 320h64v-64h-64v64zM512 320h64v-64h-64v64zM832 320h64v-64h-64v64zM64 256h64v-64h-64v64zM384 256h64v-64h-64v64zM448 256h64v-64h-64v64zM512 256h64v-64h-64v64zM576 256h64v-64h-64v64zM896 256h64v-64h-64v64zM64 192h64v-64h-64v64zM384 192h64v-64h-64v64zM448 192h64v-64h-64v64zM512 192h64v-64h-64v64zM576 192h64v-64h-64v64zM896 192h64v-64h-64v64zM0 128h64v-64h-64v64zM448 128h64v-64h-64v64zM512 128h64v-64h-64v64zM960 128h64v-64h-64v64zM0 64h64v-64h-64v64zM960 64h64v-64h-64v64zM64 0h64v-64h-64v64zM128 0h64v-64h-64v64zM192 0h64v-64h-64v64zM256 0h64v-64h-64v64zM320 0h64v-64h-64v64zM384 0h64v-64h-64v64zM448 0h64v-64h-64v64zM512 0h64v-64h-64v64zM576 0h64v-64h-64v64zM640 0h64v-64h-64v64zM704 0h64v-64h-64v64zM768 0h64v-64h-64v64zM832 0h64v-64h-64v64zM896 0h64v-64h-64v64z" />
<glyph unicode="&#xe925;" glyph-name="exclamation-triangle-alt" d="M448 960h64v-64h-64v64zM512 960h64v-64h-64v64zM384 896h64v-64h-64v64zM448 896h64v-64h-64v64zM512 896h64v-64h-64v64zM576 896h64v-64h-64v64zM384 832h64v-64h-64v64zM448 832h64v-64h-64v64zM512 832h64v-64h-64v64zM576 832h64v-64h-64v64zM320 768h64v-64h-64v64zM384 768h64v-64h-64v64zM448 768h64v-64h-64v64zM512 768h64v-64h-64v64zM576 768h64v-64h-64v64zM640 768h64v-64h-64v64zM320 704h64v-64h-64v64zM384 704h64v-64h-64v64zM448 704h64v-64h-64v64zM512 704h64v-64h-64v64zM576 704h64v-64h-64v64zM640 704h64v-64h-64v64zM256 640h64v-64h-64v64zM320 640h64v-64h-64v64zM384 640h64v-64h-64v64zM576 640h64v-64h-64v64zM640 640h64v-64h-64v64zM704 640h64v-64h-64v64zM256 576h64v-64h-64v64zM320 576h64v-64h-64v64zM384 576h64v-64h-64v64zM576 576h64v-64h-64v64zM640 576h64v-64h-64v64zM704 576h64v-64h-64v64zM192 512h64v-64h-64v64zM256 512h64v-64h-64v64zM320 512h64v-64h-64v64zM384 512h64v-64h-64v64zM576 512h64v-64h-64v64zM640 512h64v-64h-64v64zM704 512h64v-64h-64v64zM768 512h64v-64h-64v64zM192 448h64v-64h-64v64zM256 448h64v-64h-64v64zM320 448h64v-64h-64v64zM384 448h64v-64h-64v64zM576 448h64v-64h-64v64zM640 448h64v-64h-64v64zM704 448h64v-64h-64v64zM768 448h64v-64h-64v64zM128 384h64v-64h-64v64zM192 384h64v-64h-64v64zM256 384h64v-64h-64v64zM320 384h64v-64h-64v64zM384 384h64v-64h-64v64zM576 384h64v-64h-64v64zM640 384h64v-64h-64v64zM704 384h64v-64h-64v64zM768 384h64v-64h-64v64zM832 384h64v-64h-64v64zM128 320h64v-64h-64v64zM192 320h64v-64h-64v64zM256 320h64v-64h-64v64zM320 320h64v-64h-64v64zM384 320h64v-64h-64v64zM448 320h64v-64h-64v64zM512 320h64v-64h-64v64zM576 320h64v-64h-64v64zM640 320h64v-64h-64v64zM704 320h64v-64h-64v64zM768 320h64v-64h-64v64zM832 320h64v-64h-64v64zM64 256h64v-64h-64v64zM128 256h64v-64h-64v64zM192 256h64v-64h-64v64zM256 256h64v-64h-64v64zM320 256h64v-64h-64v64zM384 256h64v-64h-64v64zM576 256h64v-64h-64v64zM640 256h64v-64h-64v64zM704 256h64v-64h-64v64zM768 256h64v-64h-64v64zM832 256h64v-64h-64v64zM896 256h64v-64h-64v64zM64 192h64v-64h-64v64zM128 192h64v-64h-64v64zM192 192h64v-64h-64v64zM256 192h64v-64h-64v64zM320 192h64v-64h-64v64zM384 192h64v-64h-64v64zM576 192h64v-64h-64v64zM640 192h64v-64h-64v64zM704 192h64v-64h-64v64zM768 192h64v-64h-64v64zM832 192h64v-64h-64v64zM896 192h64v-64h-64v64zM0 128h64v-64h-64v64zM64 128h64v-64h-64v64zM128 128h64v-64h-64v64zM192 128h64v-64h-64v64zM256 128h64v-64h-64v64zM320 128h64v-64h-64v64zM384 128h64v-64h-64v64zM448 128h64v-64h-64v64zM512 128h64v-64h-64v64zM576 128h64v-64h-64v64zM640 128h64v-64h-64v64zM704 128h64v-64h-64v64zM768 128h64v-64h-64v64zM832 128h64v-64h-64v64zM896 128h64v-64h-64v64zM960 128h64v-64h-64v64zM0 64h64v-64h-64v64zM64 64h64v-64h-64v64zM128 64h64v-64h-64v64zM192 64h64v-64h-64v64zM256 64h64v-64h-64v64zM320 64h64v-64h-64v64zM384 64h64v-64h-64v64zM448 64h64v-64h-64v64zM512 64h64v-64h-64v64zM576 64h64v-64h-64v64zM640 64h64v-64h-64v64zM704 64h64v-64h-64v64zM768 64h64v-64h-64v64zM832 64h64v-64h-64v64zM896 64h64v-64h-64v64zM960 64h64v-64h-64v64zM64 0h64v-64h-64v64zM128 0h64v-64h-64v64zM192 0h64v-64h-64v64zM256 0h64v-64h-64v64zM320 0h64v-64h-64v64zM384 0h64v-64h-64v64zM448 0h64v-64h-64v64zM512 0h64v-64h-64v64zM576 0h64v-64h-64v64zM640 0h64v-64h-64v64zM704 0h64v-64h-64v64zM768 0h64v-64h-64v64zM832 0h64v-64h-64v64zM896 0h64v-64h-64v64z" />
<glyph unicode="&#xe926;" glyph-name="eye" d="M384 768h64v-64h-64v64zM448 768h64v-64h-64v64zM512 768h64v-64h-64v64zM576 768h64v-64h-64v64zM256 704h64v-64h-64v64zM320 704h64v-64h-64v64zM384 704h64v-64h-64v64zM576 704h64v-64h-64v64zM640 704h64v-64h-64v64zM704 704h64v-64h-64v64zM128 640h64v-64h-64v64zM192 640h64v-64h-64v64zM256 640h64v-64h-64v64zM704 640h64v-64h-64v64zM768 640h64v-64h-64v64zM832 640h64v-64h-64v64zM64 576h64v-64h-64v64zM128 576h64v-64h-64v64zM192 576h64v-64h-64v64zM256 576h64v-64h-64v64zM448 576h64v-64h-64v64zM512 576h64v-64h-64v64zM576 576h64v-64h-64v64zM704 576h64v-64h-64v64zM768 576h64v-64h-64v64zM832 576h64v-64h-64v64zM896 576h64v-64h-64v64zM0 512h64v-64h-64v64zM64 512h64v-64h-64v64zM128 512h64v-64h-64v64zM192 512h64v-64h-64v64zM384 512h64v-64h-64v64zM448 512h64v-64h-64v64zM512 512h64v-64h-64v64zM576 512h64v-64h-64v64zM768 512h64v-64h-64v64zM832 512h64v-64h-64v64zM896 512h64v-64h-64v64zM960 512h64v-64h-64v64zM0 448h64v-64h-64v64zM64 448h64v-64h-64v64zM128 448h64v-64h-64v64zM192 448h64v-64h-64v64zM384 448h64v-64h-64v64zM448 448h64v-64h-64v64zM512 448h64v-64h-64v64zM576 448h64v-64h-64v64zM768 448h64v-64h-64v64zM832 448h64v-64h-64v64zM896 448h64v-64h-64v64zM960 448h64v-64h-64v64zM64 384h64v-64h-64v64zM128 384h64v-64h-64v64zM192 384h64v-64h-64v64zM256 384h64v-64h-64v64zM384 384h64v-64h-64v64zM448 384h64v-64h-64v64zM512 384h64v-64h-64v64zM576 384h64v-64h-64v64zM704 384h64v-64h-64v64zM768 384h64v-64h-64v64zM832 384h64v-64h-64v64zM896 384h64v-64h-64v64zM128 320h64v-64h-64v64zM192 320h64v-64h-64v64zM256 320h64v-64h-64v64zM704 320h64v-64h-64v64zM768 320h64v-64h-64v64zM832 320h64v-64h-64v64zM256 256h64v-64h-64v64zM320 256h64v-64h-64v64zM384 256h64v-64h-64v64zM576 256h64v-64h-64v64zM640 256h64v-64h-64v64zM704 256h64v-64h-64v64zM384 192h64v-64h-64v64zM448 192h64v-64h-64v64zM512 192h64v-64h-64v64zM576 192h64v-64h-64v64z" />
<glyph unicode="&#xe927;" glyph-name="eye-slash" d="M64 896h64v-64h-64v64zM128 896h64v-64h-64v64zM64 832h64v-64h-64v64zM128 832h64v-64h-64v64zM192 832h64v-64h-64v64zM128 768h64v-64h-64v64zM192 768h64v-64h-64v64zM256 768h64v-64h-64v64zM384 768h64v-64h-64v64zM448 768h64v-64h-64v64zM512 768h64v-64h-64v64zM576 768h64v-64h-64v64zM192 704h64v-64h-64v64zM256 704h64v-64h-64v64zM320 704h64v-64h-64v64zM576 704h64v-64h-64v64zM640 704h64v-64h-64v64zM704 704h64v-64h-64v64zM256 640h64v-64h-64v64zM320 640h64v-64h-64v64zM384 640h64v-64h-64v64zM704 640h64v-64h-64v64zM768 640h64v-64h-64v64zM832 640h64v-64h-64v64zM64 576h64v-64h-64v64zM128 576h64v-64h-64v64zM192 576h64v-64h-64v64zM320 576h64v-64h-64v64zM384 576h64v-64h-64v64zM448 576h64v-64h-64v64zM512 576h64v-64h-64v64zM576 576h64v-64h-64v64zM704 576h64v-64h-64v64zM768 576h64v-64h-64v64zM832 576h64v-64h-64v64zM896 576h64v-64h-64v64zM0 512h64v-64h-64v64zM64 512h64v-64h-64v64zM128 512h64v-64h-64v64zM192 512h64v-64h-64v64zM384 512h64v-64h-64v64zM448 512h64v-64h-64v64zM512 512h64v-64h-64v64zM576 512h64v-64h-64v64zM768 512h64v-64h-64v64zM832 512h64v-64h-64v64zM896 512h64v-64h-64v64zM960 512h64v-64h-64v64zM0 448h64v-64h-64v64zM64 448h64v-64h-64v64zM128 448h64v-64h-64v64zM192 448h64v-64h-64v64zM384 448h64v-64h-64v64zM448 448h64v-64h-64v64zM512 448h64v-64h-64v64zM576 448h64v-64h-64v64zM768 448h64v-64h-64v64zM832 448h64v-64h-64v64zM896 448h64v-64h-64v64zM960 448h64v-64h-64v64zM64 384h64v-64h-64v64zM128 384h64v-64h-64v64zM192 384h64v-64h-64v64zM256 384h64v-64h-64v64zM384 384h64v-64h-64v64zM448 384h64v-64h-64v64zM512 384h64v-64h-64v64zM576 384h64v-64h-64v64zM640 384h64v-64h-64v64zM768 384h64v-64h-64v64zM832 384h64v-64h-64v64zM896 384h64v-64h-64v64zM128 320h64v-64h-64v64zM192 320h64v-64h-64v64zM256 320h64v-64h-64v64zM576 320h64v-64h-64v64zM640 320h64v-64h-64v64zM704 320h64v-64h-64v64zM256 256h64v-64h-64v64zM320 256h64v-64h-64v64zM384 256h64v-64h-64v64zM640 256h64v-64h-64v64zM704 256h64v-64h-64v64zM768 256h64v-64h-64v64zM384 192h64v-64h-64v64zM448 192h64v-64h-64v64zM512 192h64v-64h-64v64zM576 192h64v-64h-64v64zM704 192h64v-64h-64v64zM768 192h64v-64h-64v64zM832 192h64v-64h-64v64zM768 128h64v-64h-64v64zM832 128h64v-64h-64v64zM896 128h64v-64h-64v64zM832 64h64v-64h-64v64zM896 64h64v-64h-64v64z" />
<glyph unicode="&#xe928;" glyph-name="facebook" d="M512 896h64v-64h-64v64zM576 896h64v-64h-64v64zM640 896h64v-64h-64v64zM704 896h64v-64h-64v64zM448 832h64v-64h-64v64zM512 832h64v-64h-64v64zM576 832h64v-64h-64v64zM640 832h64v-64h-64v64zM704 832h64v-64h-64v64zM384 768h64v-64h-64v64zM448 768h64v-64h-64v64zM512 768h64v-64h-64v64zM576 768h64v-64h-64v64zM640 768h64v-64h-64v64zM704 768h64v-64h-64v64zM384 704h64v-64h-64v64zM448 704h64v-64h-64v64zM512 704h64v-64h-64v64zM384 640h64v-64h-64v64zM448 640h64v-64h-64v64zM512 640h64v-64h-64v64zM384 576h64v-64h-64v64zM448 576h64v-64h-64v64zM512 576h64v-64h-64v64zM192 512h64v-64h-64v64zM256 512h64v-64h-64v64zM320 512h64v-64h-64v64zM384 512h64v-64h-64v64zM448 512h64v-64h-64v64zM512 512h64v-64h-64v64zM576 512h64v-64h-64v64zM640 512h64v-64h-64v64zM704 512h64v-64h-64v64zM192 448h64v-64h-64v64zM256 448h64v-64h-64v64zM320 448h64v-64h-64v64zM384 448h64v-64h-64v64zM448 448h64v-64h-64v64zM512 448h64v-64h-64v64zM576 448h64v-64h-64v64zM640 448h64v-64h-64v64zM704 448h64v-64h-64v64zM192 384h64v-64h-64v64zM256 384h64v-64h-64v64zM320 384h64v-64h-64v64zM384 384h64v-64h-64v64zM448 384h64v-64h-64v64zM512 384h64v-64h-64v64zM576 384h64v-64h-64v64zM640 384h64v-64h-64v64zM704 384h64v-64h-64v64zM384 320h64v-64h-64v64zM448 320h64v-64h-64v64zM512 320h64v-64h-64v64zM384 256h64v-64h-64v64zM448 256h64v-64h-64v64zM512 256h64v-64h-64v64zM384 192h64v-64h-64v64zM448 192h64v-64h-64v64zM512 192h64v-64h-64v64zM384 128h64v-64h-64v64zM448 128h64v-64h-64v64zM512 128h64v-64h-64v64zM384 64h64v-64h-64v64zM448 64h64v-64h-64v64zM512 64h64v-64h-64v64zM384 0h64v-64h-64v64zM448 0h64v-64h-64v64zM512 0h64v-64h-64v64z" />
<glyph unicode="&#xe929;" glyph-name="facebook-square" d="M64 960h64v-64h-64v64zM128 960h64v-64h-64v64zM192 960h64v-64h-64v64zM256 960h64v-64h-64v64zM320 960h64v-64h-64v64zM384 960h64v-64h-64v64zM448 960h64v-64h-64v64zM512 960h64v-64h-64v64zM576 960h64v-64h-64v64zM640 960h64v-64h-64v64zM704 960h64v-64h-64v64zM768 960h64v-64h-64v64zM832 960h64v-64h-64v64zM896 960h64v-64h-64v64zM0 896h64v-64h-64v64zM64 896h64v-64h-64v64zM128 896h64v-64h-64v64zM192 896h64v-64h-64v64zM256 896h64v-64h-64v64zM320 896h64v-64h-64v64zM384 896h64v-64h-64v64zM448 896h64v-64h-64v64zM512 896h64v-64h-64v64zM576 896h64v-64h-64v64zM896 896h64v-64h-64v64zM960 896h64v-64h-64v64zM0 832h64v-64h-64v64zM64 832h64v-64h-64v64zM128 832h64v-64h-64v64zM192 832h64v-64h-64v64zM256 832h64v-64h-64v64zM320 832h64v-64h-64v64zM384 832h64v-64h-64v64zM448 832h64v-64h-64v64zM512 832h64v-64h-64v64zM896 832h64v-64h-64v64zM960 832h64v-64h-64v64zM0 768h64v-64h-64v64zM64 768h64v-64h-64v64zM128 768h64v-64h-64v64zM192 768h64v-64h-64v64zM256 768h64v-64h-64v64zM320 768h64v-64h-64v64zM384 768h64v-64h-64v64zM448 768h64v-64h-64v64zM896 768h64v-64h-64v64zM960 768h64v-64h-64v64zM0 704h64v-64h-64v64zM64 704h64v-64h-64v64zM128 704h64v-64h-64v64zM192 704h64v-64h-64v64zM256 704h64v-64h-64v64zM320 704h64v-64h-64v64zM384 704h64v-64h-64v64zM448 704h64v-64h-64v64zM704 704h64v-64h-64v64zM768 704h64v-64h-64v64zM832 704h64v-64h-64v64zM896 704h64v-64h-64v64zM960 704h64v-64h-64v64zM0 640h64v-64h-64v64zM64 640h64v-64h-64v64zM128 640h64v-64h-64v64zM192 640h64v-64h-64v64zM256 640h64v-64h-64v64zM320 640h64v-64h-64v64zM384 640h64v-64h-64v64zM448 640h64v-64h-64v64zM704 640h64v-64h-64v64zM768 640h64v-64h-64v64zM832 640h64v-64h-64v64zM896 640h64v-64h-64v64zM960 640h64v-64h-64v64zM0 576h64v-64h-64v64zM64 576h64v-64h-64v64zM128 576h64v-64h-64v64zM192 576h64v-64h-64v64zM256 576h64v-64h-64v64zM320 576h64v-64h-64v64zM384 576h64v-64h-64v64zM448 576h64v-64h-64v64zM704 576h64v-64h-64v64zM768 576h64v-64h-64v64zM832 576h64v-64h-64v64zM896 576h64v-64h-64v64zM960 576h64v-64h-64v64zM0 512h64v-64h-64v64zM64 512h64v-64h-64v64zM128 512h64v-64h-64v64zM192 512h64v-64h-64v64zM256 512h64v-64h-64v64zM896 512h64v-64h-64v64zM960 512h64v-64h-64v64zM0 448h64v-64h-64v64zM64 448h64v-64h-64v64zM128 448h64v-64h-64v64zM192 448h64v-64h-64v64zM256 448h64v-64h-64v64zM896 448h64v-64h-64v64zM960 448h64v-64h-64v64zM0 384h64v-64h-64v64zM64 384h64v-64h-64v64zM128 384h64v-64h-64v64zM192 384h64v-64h-64v64zM256 384h64v-64h-64v64zM896 384h64v-64h-64v64zM960 384h64v-64h-64v64zM0 320h64v-64h-64v64zM64 320h64v-64h-64v64zM128 320h64v-64h-64v64zM192 320h64v-64h-64v64zM256 320h64v-64h-64v64zM320 320h64v-64h-64v64zM384 320h64v-64h-64v64zM448 320h64v-64h-64v64zM704 320h64v-64h-64v64zM768 320h64v-64h-64v64zM832 320h64v-64h-64v64zM896 320h64v-64h-64v64zM960 320h64v-64h-64v64zM0 256h64v-64h-64v64zM64 256h64v-64h-64v64zM128 256h64v-64h-64v64zM192 256h64v-64h-64v64zM256 256h64v-64h-64v64zM320 256h64v-64h-64v64zM384 256h64v-64h-64v64zM448 256h64v-64h-64v64zM704 256h64v-64h-64v64zM768 256h64v-64h-64v64zM832 256h64v-64h-64v64zM896 256h64v-64h-64v64zM960 256h64v-64h-64v64zM0 192h64v-64h-64v64zM64 192h64v-64h-64v64zM128 192h64v-64h-64v64zM192 192h64v-64h-64v64zM256 192h64v-64h-64v64zM320 192h64v-64h-64v64zM384 192h64v-64h-64v64zM448 192h64v-64h-64v64zM704 192h64v-64h-64v64zM768 192h64v-64h-64v64zM832 192h64v-64h-64v64zM896 192h64v-64h-64v64zM960 192h64v-64h-64v64zM0 128h64v-64h-64v64zM64 128h64v-64h-64v64zM128 128h64v-64h-64v64zM192 128h64v-64h-64v64zM256 128h64v-64h-64v64zM320 128h64v-64h-64v64zM384 128h64v-64h-64v64zM448 128h64v-64h-64v64zM704 128h64v-64h-64v64zM768 128h64v-64h-64v64zM832 128h64v-64h-64v64zM896 128h64v-64h-64v64zM960 128h64v-64h-64v64zM0 64h64v-64h-64v64zM64 64h64v-64h-64v64zM128 64h64v-64h-64v64zM192 64h64v-64h-64v64zM256 64h64v-64h-64v64zM320 64h64v-64h-64v64zM384 64h64v-64h-64v64zM448 64h64v-64h-64v64zM704 64h64v-64h-64v64zM768 64h64v-64h-64v64zM832 64h64v-64h-64v64zM896 64h64v-64h-64v64zM960 64h64v-64h-64v64zM64 0h64v-64h-64v64zM128 0h64v-64h-64v64zM192 0h64v-64h-64v64zM256 0h64v-64h-64v64zM320 0h64v-64h-64v64zM384 0h64v-64h-64v64zM448 0h64v-64h-64v64zM704 0h64v-64h-64v64zM768 0h64v-64h-64v64zM832 0h64v-64h-64v64zM896 0h64v-64h-64v64z" />
<glyph unicode="&#xe92a;" glyph-name="file" d="M192 960h64v-64h-64v64zM256 960h64v-64h-64v64zM320 960h64v-64h-64v64zM384 960h64v-64h-64v64zM448 960h64v-64h-64v64zM512 960h64v-64h-64v64zM576 960h64v-64h-64v64zM192 896h64v-64h-64v64zM512 896h64v-64h-64v64zM640 896h64v-64h-64v64zM192 832h64v-64h-64v64zM512 832h64v-64h-64v64zM704 832h64v-64h-64v64zM192 768h64v-64h-64v64zM512 768h64v-64h-64v64zM768 768h64v-64h-64v64zM192 704h64v-64h-64v64zM512 704h64v-64h-64v64zM576 704h64v-64h-64v64zM640 704h64v-64h-64v64zM704 704h64v-64h-64v64zM768 704h64v-64h-64v64zM192 640h64v-64h-64v64zM768 640h64v-64h-64v64zM192 576h64v-64h-64v64zM768 576h64v-64h-64v64zM192 512h64v-64h-64v64zM768 512h64v-64h-64v64zM192 448h64v-64h-64v64zM768 448h64v-64h-64v64zM192 384h64v-64h-64v64zM768 384h64v-64h-64v64zM192 320h64v-64h-64v64zM768 320h64v-64h-64v64zM192 256h64v-64h-64v64zM768 256h64v-64h-64v64zM192 192h64v-64h-64v64zM768 192h64v-64h-64v64zM192 128h64v-64h-64v64zM768 128h64v-64h-64v64zM192 64h64v-64h-64v64zM768 64h64v-64h-64v64zM192 0h64v-64h-64v64zM256 0h64v-64h-64v64zM320 0h64v-64h-64v64zM384 0h64v-64h-64v64zM448 0h64v-64h-64v64zM512 0h64v-64h-64v64zM576 0h64v-64h-64v64zM640 0h64v-64h-64v64zM704 0h64v-64h-64v64zM768 0h64v-64h-64v64z" />
<glyph unicode="&#xe92b;" glyph-name="folder" d="M192 832h64v-64h-64v64zM256 832h64v-64h-64v64zM320 832h64v-64h-64v64zM384 832h64v-64h-64v64zM128 768h64v-64h-64v64zM448 768h64v-64h-64v64zM64 704h64v-64h-64v64zM512 704h64v-64h-64v64zM576 704h64v-64h-64v64zM640 704h64v-64h-64v64zM704 704h64v-64h-64v64zM768 704h64v-64h-64v64zM832 704h64v-64h-64v64zM64 640h64v-64h-64v64zM896 640h64v-64h-64v64zM64 576h64v-64h-64v64zM896 576h64v-64h-64v64zM64 512h64v-64h-64v64zM896 512h64v-64h-64v64zM64 448h64v-64h-64v64zM896 448h64v-64h-64v64zM64 384h64v-64h-64v64zM896 384h64v-64h-64v64zM64 320h64v-64h-64v64zM896 320h64v-64h-64v64zM64 256h64v-64h-64v64zM896 256h64v-64h-64v64zM64 192h64v-64h-64v64zM896 192h64v-64h-64v64zM128 128h64v-64h-64v64zM192 128h64v-64h-64v64zM256 128h64v-64h-64v64zM320 128h64v-64h-64v64zM384 128h64v-64h-64v64zM448 128h64v-64h-64v64zM512 128h64v-64h-64v64zM576 128h64v-64h-64v64zM640 128h64v-64h-64v64zM704 128h64v-64h-64v64zM768 128h64v-64h-64v64zM832 128h64v-64h-64v64z" />
<glyph unicode="&#xe92c;" d="M256 896h64v-64h-64zM832 896h64v-64h-64zM256 832h64v-64h-64zM320 832h64v-64h-64zM768 832h64v-64h-64zM832 832h64v-64h-64zM256 768h64v-64h-64zM320 768h64v-64h-64zM384 768h64v-64h-64zM448 768h64v-64h-64zM512 768h64v-64h-64zM576 768h64v-64h-64zM640 768h64v-64h-64zM704 768h64v-64h-64zM768 768h64v-64h-64zM832 768h64v-64h-64zM192 704h64v-64h-64zM256 704h64v-64h-64zM320 704h64v-64h-64zM384 704h64v-64h-64zM448 704h64v-64h-64zM512 704h64v-64h-64zM576 704h64v-64h-64zM640 704h64v-64h-64zM704 704h64v-64h-64zM768 704h64v-64h-64zM832 704h64v-64h-64zM896 704h64v-64h-64zM192 640h64v-64h-64zM256 640h64v-64h-64zM320 640h64v-64h-64zM384 640h64v-64h-64zM448 640h64v-64h-64zM512 640h64v-64h-64zM576 640h64v-64h-64zM640 640h64v-64h-64zM704 640h64v-64h-64zM768 640h64v-64h-64zM832 640h64v-64h-64zM896 640h64v-64h-64zM192 576h64v-64h-64zM256 576h64v-64h-64zM320 576h64v-64h-64zM384 576h64v-64h-64zM448 576h64v-64h-64zM512 576h64v-64h-64zM576 576h64v-64h-64zM640 576h64v-64h-64zM704 576h64v-64h-64zM768 576h64v-64h-64zM832 576h64v-64h-64zM896 576h64v-64h-64zM192 512h64v-64h-64zM256 512h64v-64h-64zM320 512h64v-64h-64zM384 512h64v-64h-64zM448 512h64v-64h-64zM512 512h64v-64h-64zM576 512h64v-64h-64zM640 512h64v-64h-64zM704 512h64v-64h-64zM768 512h64v-64h-64zM832 512h64v-64h-64zM896 512h64v-64h-64zM256 448h64v-64h-64zM320 448h64v-64h-64zM384 448h64v-64h-64zM448 448h64v-64h-64zM512 448h64v-64h-64zM576 448h64v-64h-64zM640 448h64v-64h-64zM704 448h64v-64h-64zM768 448h64v-64h-64zM832 448h64v-64h-64zM320 384h64v-64h-64zM384 384h64v-64h-64zM448 384h64v-64h-64zM512 384h64v-64h-64zM576 384h64v-64h-64zM640 384h64v-64h-64zM704 384h64v-64h-64zM768 384h64v-64h-64z" />
<glyph unicode="&#xe92d;" d="M64 320h64v-64h-64zM128 320h64v-64h-64z" />
<glyph unicode="&#xe92e;" d="M448 320h64v-64h-64zM512 320h64v-64h-64zM576 320h64v-64h-64zM640 320h64v-64h-64z" />
<glyph unicode="&#xe92f;" d="M192 256h64v-64h-64z" />
<glyph unicode="&#xe930;" d="M384 256h64v-64h-64zM448 256h64v-64h-64zM512 256h64v-64h-64zM576 256h64v-64h-64zM640 256h64v-64h-64zM704 256h64v-64h-64zM256 192h64v-64h-64zM320 192h64v-64h-64zM384 192h64v-64h-64zM448 192h64v-64h-64zM512 192h64v-64h-64zM576 192h64v-64h-64zM640 192h64v-64h-64zM704 192h64v-64h-64zM384 128h64v-64h-64zM448 128h64v-64h-64zM512 128h64v-64h-64zM576 128h64v-64h-64zM640 128h64v-64h-64zM704 128h64v-64h-64zM384 64h64v-64h-64zM448 64h64v-64h-64zM512 64h64v-64h-64zM576 64h64v-64h-64zM640 64h64v-64h-64zM704 64h64v-64h-64z" />
<glyph unicode="&#xe99f;" glyph-name="github-square" d="M64 960h64v-64h-64v64zM128 960h64v-64h-64v64zM192 960h64v-64h-64v64zM256 960h64v-64h-64v64zM320 960h64v-64h-64v64zM384 960h64v-64h-64v64zM448 960h64v-64h-64v64zM512 960h64v-64h-64v64zM576 960h64v-64h-64v64zM640 960h64v-64h-64v64zM704 960h64v-64h-64v64zM768 960h64v-64h-64v64zM832 960h64v-64h-64v64zM896 960h64v-64h-64v64zM0 896h64v-64h-64v64zM64 896h64v-64h-64v64zM128 896h64v-64h-64v64zM192 896h64v-64h-64v64zM320 896h64v-64h-64v64zM384 896h64v-64h-64v64zM448 896h64v-64h-64v64zM512 896h64v-64h-64v64zM576 896h64v-64h-64v64zM640 896h64v-64h-64v64zM704 896h64v-64h-64v64zM768 896h64v-64h-64v64zM896 896h64v-64h-64v64zM960 896h64v-64h-64v64zM0 832h64v-64h-64v64zM64 832h64v-64h-64v64zM128 832h64v-64h-64v64zM192 832h64v-64h-64v64zM384 832h64v-64h-64v64zM448 832h64v-64h-64v64zM512 832h64v-64h-64v64zM576 832h64v-64h-64v64zM640 832h64v-64h-64v64zM704 832h64v-64h-64v64zM896 832h64v-64h-64v64zM960 832h64v-64h-64v64zM0 768h64v-64h-64v64zM64 768h64v-64h-64v64zM128 768h64v-64h-64v64zM192 768h64v-64h-64v64zM896 768h64v-64h-64v64zM960 768h64v-64h-64v64zM0 704h64v-64h-64v64zM64 704h64v-64h-64v64zM128 704h64v-64h-64v64zM960 704h64v-64h-64v64zM0 640h64v-64h-64v64zM64 640h64v-64h-64v64zM128 640h64v-64h-64v64zM960 640h64v-64h-64v64zM0 576h64v-64h-64v64zM64 576h64v-64h-64v64zM128 576h64v-64h-64v64zM960 576h64v-64h-64v64zM0 512h64v-64h-64v64zM64 512h64v-64h-64v64zM128 512h64v-64h-64v64zM960 512h64v-64h-64v64zM0 448h64v-64h-64v64zM64 448h64v-64h-64v64zM128 448h64v-64h-64v64zM192 448h64v-64h-64v64zM896 448h64v-64h-64v64zM960 448h64v-64h-64v64zM0 384h64v-64h-64v64zM64 384h64v-64h-64v64zM128 384h64v-64h-64v64zM192 384h64v-64h-64v64zM256 384h64v-64h-64v64zM832 384h64v-64h-64v64zM896 384h64v-64h-64v64zM960 384h64v-64h-64v64zM0 320h64v-64h-64v64zM192 320h64v-64h-64v64zM256 320h64v-64h-64v64zM320 320h64v-64h-64v64zM384 320h64v-64h-64v64zM704 320h64v-64h-64v64zM768 320h64v-64h-64v64zM832 320h64v-64h-64v64zM896 320h64v-64h-64v64zM960 320h64v-64h-64v64zM0 256h64v-64h-64v64zM64 256h64v-64h-64v64zM128 256h64v-64h-64v64zM256 256h64v-64h-64v64zM320 256h64v-64h-64v64zM768 256h64v-64h-64v64zM832 256h64v-64h-64v64zM896 256h64v-64h-64v64zM960 256h64v-64h-64v64zM0 192h64v-64h-64v64zM64 192h64v-64h-64v64zM128 192h64v-64h-64v64zM192 192h64v-64h-64v64zM768 192h64v-64h-64v64zM832 192h64v-64h-64v64zM896 192h64v-64h-64v64zM960 192h64v-64h-64v64zM0 128h64v-64h-64v64zM64 128h64v-64h-64v64zM128 128h64v-64h-64v64zM192 128h64v-64h-64v64zM256 128h64v-64h-64v64zM320 128h64v-64h-64v64zM768 128h64v-64h-64v64zM832 128h64v-64h-64v64zM896 128h64v-64h-64v64zM960 128h64v-64h-64v64zM0 64h64v-64h-64v64zM64 64h64v-64h-64v64zM128 64h64v-64h-64v64zM192 64h64v-64h-64v64zM256 64h64v-64h-64v64zM320 64h64v-64h-64v64zM768 64h64v-64h-64v64zM832 64h64v-64h-64v64zM896 64h64v-64h-64v64zM960 64h64v-64h-64v64zM64 0h64v-64h-64v64zM128 0h64v-64h-64v64zM192 0h64v-64h-64v64zM256 0h64v-64h-64v64zM320 0h64v-64h-64v64zM384 0h64v-64h-64v64zM448 0h64v-64h-64v64zM512 0h64v-64h-64v64zM576 0h64v-64h-64v64zM640 0h64v-64h-64v64zM704 0h64v-64h-64v64zM768 0h64v-64h-64v64zM832 0h64v-64h-64v64zM896 0h64v-64h-64v64z" />
<glyph unicode="&#xe9a0;" glyph-name="heart" d="M128 896h64v-64h-64v64zM192 896h64v-64h-64v64zM256 896h64v-64h-64v64zM640 896h64v-64h-64v64zM704 896h64v-64h-64v64zM768 896h64v-64h-64v64zM64 832h64v-64h-64v64zM320 832h64v-64h-64v64zM576 832h64v-64h-64v64zM832 832h64v-64h-64v64zM0 768h64v-64h-64v64zM128 768h64v-64h-64v64zM192 768h64v-64h-64v64zM384 768h64v-64h-64v64zM512 768h64v-64h-64v64zM896 768h64v-64h-64v64zM0 704h64v-64h-64v64zM128 704h64v-64h-64v64zM448 704h64v-64h-64v64zM896 704h64v-64h-64v64zM0 640h64v-64h-64v64zM896 640h64v-64h-64v64zM0 576h64v-64h-64v64zM896 576h64v-64h-64v64zM0 512h64v-64h-64v64zM896 512h64v-64h-64v64zM64 448h64v-64h-64v64zM832 448h64v-64h-64v64zM128 384h64v-64h-64v64zM768 384h64v-64h-64v64zM192 320h64v-64h-64v64zM704 320h64v-64h-64v64zM256 256h64v-64h-64v64zM640 256h64v-64h-64v64zM320 192h64v-64h-64v64zM576 192h64v-64h-64v64zM384 128h64v-64h-64v64zM512 128h64v-64h-64v64zM448 64h64v-64h-64v64z" />
</font>
</defs>
</svg>
